<?xml version="1.0" encoding="utf-8"?>
<!-- Generator: Adobe Illustrator 27.5.0, SVG Export Plug-In . SVG Version: 6.00 Build 0)  -->
<svg version="1.1" xmlns="http://www.w3.org/2000/svg" xmlns:xlink="http://www.w3.org/1999/xlink" x="0px" y="0px"
	 viewBox="0 0 500 500" style="enable-background:new 0 0 500 500;" xml:space="preserve">
<g id="Background_Complete">
	<g>
		<rect x="416.779" y="398.494" style="fill:#EBEBEB;" width="33.122" height="0.25"/>
		<rect x="322.527" y="401.208" style="fill:#EBEBEB;" width="8.693" height="0.25"/>
		<rect x="396.586" y="389.208" style="fill:#EBEBEB;" width="19.192" height="0.25"/>
		<rect x="52.459" y="390.888" style="fill:#EBEBEB;" width="43.193" height="0.25"/>
		<rect x="104.556" y="390.888" style="fill:#EBEBEB;" width="6.333" height="0.25"/>
		<rect x="131.471" y="395.111" style="fill:#EBEBEB;" width="93.676" height="0.25"/>
		<path style="fill:#EBEBEB;" d="M237.014,337.8H43.915c-3.147,0-5.708-2.561-5.708-5.708V60.66c0-3.147,2.561-5.708,5.708-5.708
			h193.099c3.146,0,5.707,2.561,5.707,5.708v271.432C242.721,335.239,240.16,337.8,237.014,337.8z M43.915,55.203
			c-3.01,0-5.458,2.448-5.458,5.458v271.432c0,3.01,2.448,5.458,5.458,5.458h193.099c3.009,0,5.457-2.448,5.457-5.458V60.66
			c0-3.009-2.448-5.458-5.457-5.458H43.915z"/>
		<path style="fill:#EBEBEB;" d="M453.31,337.8H260.212c-3.147,0-5.707-2.561-5.707-5.708V60.66c0-3.147,2.561-5.708,5.707-5.708
			H453.31c3.148,0,5.708,2.561,5.708,5.708v271.432C459.019,335.239,456.458,337.8,453.31,337.8z M260.212,55.203
			c-3.009,0-5.457,2.448-5.457,5.458v271.432c0,3.01,2.448,5.458,5.457,5.458H453.31c3.01,0,5.458-2.448,5.458-5.458V60.66
			c0-3.009-2.448-5.458-5.458-5.458H260.212z"/>
		<rect y="382.398" style="fill:#EBEBEB;" width="500" height="0.25"/>
	</g>
	<g>
		<g>
			<path style="fill:#F0F0F0;" d="M164.189,383.563h-3.853c-0.655,0-1.186-0.531-1.186-1.186V292.01h6.225v90.367
				C165.375,383.032,164.844,383.563,164.189,383.563z"/>
		</g>
		<rect x="297.897" y="283.87" style="fill:#E6E6E6;" width="53.957" height="8.14"/>
		<g>
			<path style="fill:#E6E6E6;" d="M202.756,383.563h-3.853c-0.655,0-1.186-0.531-1.186-1.186V292.01h6.225v90.367
				C203.941,383.032,203.411,383.563,202.756,383.563z"/>
		</g>
		<path style="fill:#E6E6E6;" d="M347.069,383.563h-3.853c-0.655,0-1.186-0.531-1.186-1.186V292.01h6.225v90.367
			C348.255,383.032,347.724,383.563,347.069,383.563z"/>
		<rect x="155.552" y="283.87" style="fill:#F5F5F5;" width="157.735" height="8.14"/>
		<path style="fill:#F0F0F0;" d="M308.503,383.563h-3.853c-0.655,0-1.186-0.531-1.186-1.186V292.01h6.225v90.367
			C309.688,383.032,309.158,383.563,308.503,383.563z"/>
	</g>
	<g>
		
			<rect x="406.267" y="217.026" transform="matrix(-1 -1.224647e-16 1.224647e-16 -1 815.1708 599.3294)" style="fill:#EBEBEB;" width="2.637" height="165.277"/>
		<path style="fill:#F0F0F0;" d="M437.184,199.923c0,8.436-5.988,15.793-14.874,19.716H392.86
			c-8.885-3.923-14.874-11.28-14.874-19.716s5.988-15.793,14.874-19.716h29.451C431.196,184.129,437.184,191.487,437.184,199.923z"
			/>
		<g>
			<g>
				<path style="fill:#E0E0E0;" d="M393.239,218.991c-7.609-3.575-14.502-10.077-14.502-19.069c0-8.973,6.9-15.497,14.502-19.069
					c0.873-0.41,0.112-1.704-0.757-1.295c-8.085,3.798-15.245,10.868-15.245,20.364c0,9.5,7.158,16.564,15.245,20.364
					C393.35,220.695,394.113,219.402,393.239,218.991L393.239,218.991z"/>
			</g>
			<g>
				<path style="fill:#E0E0E0;" d="M399.693,179.676c-10.435,9.965-10.436,30.527,0,40.493c0.698,0.667,1.76-0.392,1.061-1.061
					c-9.846-9.403-9.849-28.967,0-38.372C401.453,180.069,400.391,179.009,399.693,179.676L399.693,179.676z"/>
			</g>
			<g>
				<path style="fill:#E0E0E0;" d="M406.835,180.206c0,13.144,0,26.288,0,39.432c0,0.965,1.5,0.967,1.5,0
					c0-13.144,0-26.288,0-39.432C408.335,179.241,406.835,179.24,406.835,180.206L406.835,180.206z"/>
			</g>
			<g>
				<path style="fill:#E0E0E0;" d="M414.418,180.737c9.846,9.403,9.849,28.967,0,38.372c-0.7,0.668,0.362,1.728,1.061,1.061
					c10.435-9.965,10.436-30.527,0-40.493C414.78,179.009,413.718,180.068,414.418,180.737L414.418,180.737z"/>
			</g>
			<g>
				<path style="fill:#E0E0E0;" d="M421.932,180.854c7.609,3.575,14.502,10.077,14.502,19.069c0,8.973-6.9,15.497-14.502,19.069
					c-0.873,0.41-0.112,1.704,0.757,1.295c8.085-3.798,15.245-10.868,15.245-20.364c0-9.5-7.158-16.564-15.245-20.364
					C421.821,179.151,421.058,180.443,421.932,180.854L421.932,180.854z"/>
			</g>
		</g>
		<path style="fill:#EBEBEB;" d="M389.036,383.563h37.1l0,0c0-2.501-2.028-4.529-4.529-4.529h-28.042
			C391.063,379.034,389.036,381.062,389.036,383.563L389.036,383.563z"/>
	</g>
	<g>
		<g>
			<path style="fill:#EBEBEB;" d="M114.183,310.098c0.084,0.121-0.546,0.804,1.68,0.746c5.484-0.142,15.13-1.16,18.427-6.376
				c4.708-7.447-7.206-5.993-6.306-9.986c0.9-3.993,13.962-1.658,16.094-7.416c2.133-5.757-7.138-4.039-6.898-6.944
				c0.24-2.905,10.294,0.163,13.127-5.982c2.833-6.145-5.518-2.399-4.295-4.948c1.222-2.549,11.408-13.504,6.851-15.488
				c-4.557-1.984-14.057,9.377-17.349,10.745c-3.292,1.368-4.774-9.049-8.967-5.248c-4.193,3.801-0.226,19.41-5.259,21.719
				c-3.749,1.72-2.03-4.085-6.763-3.549C108.096,278.1,107.463,300.402,114.183,310.098z"/>
			<path style="fill:#E0E0E0;" d="M134.806,279.861c-2.14-0.085-3.757,0.152-4.771,0.379c2.242-2.544,3.783-3.8,3.838-3.843
				c0.174-0.138,0.203-0.391,0.066-0.565c-0.137-0.174-0.39-0.203-0.564-0.066c-0.043,0.034-3.592,2.885-7.824,8.799
				c-0.427-10.412,4.951-18.8,5.007-18.886c0.091-0.139,0.051-0.326-0.088-0.417c-0.138-0.092-0.326-0.052-0.417,0.087
				c-0.059,0.09-5.8,9.041-5.06,20.004c-0.681,0.982-1.375,2.036-2.072,3.174c-2.015,3.288-4.225,7.549-6.202,12.77
				c-0.705-1.755-2.243-6.41-1.668-12.571c0.016-0.166-0.106-0.312-0.272-0.328c-0.169-0.009-0.313,0.107-0.328,0.272
				c-0.665,7.13,1.454,12.325,1.957,13.439c-2.659,7.254-4.838,16.318-5.434,27.239c-0.012,0.222,0.158,0.411,0.379,0.424
				c0.017,0.001,0.034,0.001,0.05,0c0.199-0.014,0.362-0.174,0.373-0.379c0.79-14.461,4.364-25.72,8.413-34.079
				c0.861-0.777,3.364-2.737,6.817-2.842c0.158-0.018,0.297-0.145,0.291-0.312c-0.005-0.166-0.144-0.297-0.311-0.291
				c-2.731,0.092-4.866,1.238-6.164,2.165c2.941-5.791,6.061-10.085,8.516-12.984c0.703-0.217,2.608-0.699,5.445-0.585
				c0.165-0.001,0.307-0.122,0.313-0.29C135.102,280.008,134.973,279.868,134.806,279.861z"/>
		</g>
		<g>
			<g>
				<path style="fill:#E6E6E6;" d="M99.252,313.779c-6.188,0.117-16.759-5.63-20.909-11.221c-4.211-5.674,7.635-2.154,6.418-6.609
					c-1.216-4.455-15.821-1.163-18.516-7.544c-2.695-6.382,7.842-4.915,7.424-8.176c-0.418-3.262-11.335-2.599-14.839-9.382
					c-3.504-6.783,6.098-2.983,4.591-5.795c-1.507-2.811-13.543-14.644-8.506-17.111c5.037-2.467,16.319,9.858,20.1,11.233
					c3.78,1.376,4.664-7.137,9.582-3.065c4.919,4.072,1.237,21.867,7.027,24.215c4.313,1.749,2.478-6.399,7.443-4.343
					C107.758,279.58,101.765,313.731,99.252,313.779z"/>
				<g style="opacity:0.3;">
					<path style="fill:#E6E6E6;" d="M99.252,313.779c-6.188,0.117-16.759-5.63-20.909-11.221c-4.211-5.674,7.635-2.154,6.418-6.609
						c-1.216-4.455-15.821-1.163-18.516-7.544c-2.695-6.382,7.842-4.915,7.424-8.176c-0.418-3.262-11.335-2.599-14.839-9.382
						c-3.504-6.783,6.098-2.983,4.591-5.795c-1.507-2.811-13.543-14.644-8.506-17.111c5.037-2.467,16.319,9.858,20.1,11.233
						c3.78,1.376,4.664-7.137,9.582-3.065c4.919,4.072,1.237,21.867,7.027,24.215c4.313,1.749,2.478-6.399,7.443-4.343
						C107.758,279.58,101.765,313.731,99.252,313.779z"/>
				</g>
			</g>
			<path style="fill:#F5F5F5;" d="M97.208,306.351c0.089-0.035,0.171-0.089,0.219-0.181c0.145-0.275,3.536-6.837,2.776-16.591
				c-0.018-0.227-0.21-0.395-0.445-0.38c-0.228,0.018-0.398,0.217-0.38,0.445c0.642,8.235-1.816,14.263-2.505,15.768
				c-2.771-7.521-6.091-14.211-9.424-19.937c1.095-13.289-5.715-24.171-5.784-24.279c-0.123-0.193-0.378-0.25-0.571-0.127
				c-0.193,0.123-0.25,0.378-0.127,0.571c0.066,0.103,6.32,10.108,5.737,22.554c-7.932-13.286-15.674-21.004-15.829-21.156
				c-0.217-0.212-0.567-0.211-0.78,0.009c-0.213,0.217-0.21,0.567,0.008,0.78c0.13,0.127,5.635,5.627,12.079,15.272
				c-3.776-1.404-7.872-2.134-11.7-2.061c-0.229,0.004-0.41,0.193-0.406,0.423c0.004,0.225,0.189,0.405,0.414,0.405
				c0.003,0,0.005,0,0.008,0c4.099-0.073,8.51,0.784,12.48,2.43c2.216,3.397,4.517,7.279,6.734,11.581
				c-2.127-1.438-6.26-3.43-11.545-2.033c-0.221,0.058-0.353,0.285-0.295,0.505c0.059,0.221,0.285,0.357,0.506,0.294
				c6.704-1.768,11.43,2.238,12.203,2.951c6.068,12.22,11.303,27.67,11.996,45.373c0.011,0.298,0.256,0.53,0.551,0.53
				c0.008,0,0.015,0,0.022,0c0.304-0.012,0.541-0.268,0.53-0.573C103.207,326.945,100.67,315.994,97.208,306.351z"/>
		</g>
		<path style="fill:#E6E6E6;" d="M117.653,383.563c4.795-13.663,7.946-33.405,7.946-42.058c0-7.314-2.263-13.878-5.855-18.474
			H95.187c-3.592,4.596-5.855,11.16-5.855,18.474c0,8.653,3.15,28.395,7.945,42.058H117.653z"/>
		<g>
			<path style="fill:#F5F5F5;" d="M105.284,310.734c0.078,0.07-0.245,0.648,1.288,0.238c3.776-1.011,10.29-3.322,11.706-7.485
				c2.023-5.944-5.99-2.953-6.031-5.869c-0.041-2.916,9.397-3.473,9.917-7.817c0.519-4.344-5.618-1.611-5.935-3.663
				c-0.317-2.052,7.159-1.6,8.099-6.329s-4.222-0.744-3.799-2.713c0.423-1.969,5.657-11.255,2.169-11.871
				c-3.488-0.616-8.179,8.836-10.232,10.332c-2.053,1.496-4.814-5.475-7.087-2.144c-2.273,3.331,3.074,13.486-0.029,15.923
				c-2.311,1.816-2.087-2.493-5.276-1.333C95.74,289.577,99.013,305.134,105.284,310.734z"/>
			<path style="fill:#E0E0E0;" d="M114.54,286.351c-1.497,0.297-2.578,0.731-3.243,1.057c1.13-2.136,1.989-3.262,2.02-3.302
				c0.097-0.125,0.076-0.304-0.049-0.402c-0.124-0.098-0.304-0.076-0.402,0.048c-0.024,0.031-2.009,2.597-3.957,7.398
				c-2.029-7.143,0.301-13.85,0.326-13.919c0.04-0.112-0.019-0.235-0.13-0.275c-0.111-0.041-0.235,0.018-0.274,0.13
				c-0.026,0.072-2.514,7.23-0.177,14.702c-0.308,0.793-0.613,1.64-0.907,2.544c-0.849,2.613-1.671,5.934-2.172,9.88
				c-0.781-1.098-2.621-4.068-3.248-8.433c-0.017-0.117-0.126-0.199-0.243-0.182c-0.119,0.022-0.199,0.126-0.182,0.243
				c0.726,5.051,3.059,8.297,3.593,8.986c-0.635,5.468-0.636,12.111,0.769,19.778c0.029,0.156,0.178,0.259,0.334,0.23
				c0.012-0.002,0.023-0.005,0.035-0.009c0.136-0.043,0.222-0.181,0.195-0.324c-1.859-10.151-1.257-18.547,0.157-25.013
				c0.467-0.682,1.875-2.456,4.25-3.104c0.107-0.039,0.182-0.15,0.15-0.264c-0.031-0.114-0.149-0.182-0.264-0.15
				c-1.877,0.518-3.165,1.667-3.911,2.526c1.074-4.502,2.521-7.996,3.74-10.413c0.451-0.268,1.691-0.918,3.675-1.311
				c0.114-0.028,0.192-0.136,0.169-0.253C114.77,286.404,114.657,286.329,114.54,286.351z"/>
		</g>
	</g>
	<g>
		<rect x="172.324" y="297.251" style="fill:#F5F5F5;" width="64.866" height="86.312"/>
		<rect x="237.19" y="297.251" style="fill:#E6E6E6;" width="12.374" height="86.312"/>
		<rect x="176.867" y="303.655" style="fill:#FAFAFA;" width="56.112" height="20.961"/>
		<path style="fill:#EBEBEB;" d="M197.607,303.655l0.245,2.794c0.081,0.922,0.853,1.629,1.778,1.629h10.588
			c0.925,0,1.697-0.707,1.778-1.629l0.245-2.794H197.607z"/>
		<rect x="176.867" y="326.906" style="fill:#FAFAFA;" width="56.112" height="20.961"/>
		<path style="fill:#EBEBEB;" d="M197.607,326.905l0.245,2.794c0.081,0.922,0.853,1.629,1.778,1.629h10.588
			c0.925,0,1.697-0.707,1.778-1.629l0.245-2.794H197.607z"/>
		<rect x="176.867" y="350.156" style="fill:#FAFAFA;" width="56.112" height="20.961"/>
		<path style="fill:#EBEBEB;" d="M197.607,350.156l0.245,2.794c0.081,0.922,0.853,1.629,1.778,1.629h10.588
			c0.925,0,1.697-0.707,1.778-1.629l0.245-2.794H197.607z"/>
	</g>
</g>
<g id="Background_Simple" style="display:none;">
	<g style="display:inline;">
		<path style="fill:#407BFF;" d="M386.168,290.647c-5.176,33.747,16.314,83.352-26.669,102.177
			c-57.404,25.142-93.372-38.5-139.952-50.153c-35.582-8.901-97.066,55.696-141.381,14.686
			c-44.36-41.051,30.313-96.977,33.123-130.368c2.781-33.036-59.052-90.582-9.449-125.667
			c48.641-34.404,103.965,31.308,150.022,43.578c40.859,10.886,140.139-40.88,169.657,9.869
			C449.483,202.844,391.166,258.068,386.168,290.647z"/>
		<path style="opacity:0.9;fill:#FFFFFF;" d="M386.168,290.647c-5.176,33.747,16.314,83.352-26.669,102.177
			c-57.404,25.142-93.372-38.5-139.952-50.153c-35.582-8.901-97.066,55.696-141.381,14.686
			c-44.36-41.051,30.313-96.977,33.123-130.368c2.781-33.036-59.052-90.582-9.449-125.667
			c48.641-34.404,103.965,31.308,150.022,43.578c40.859,10.886,140.139-40.88,169.657,9.869
			C449.483,202.844,391.166,258.068,386.168,290.647z"/>
	</g>
</g>
<g id="Shadow">
	<ellipse id="_x3C_Path_x3E__1_" style="fill:#F5F5F5;" cx="245.178" cy="412.391" rx="193.889" ry="11.323"/>
</g>
<g id="Data">
	<g>
		<g>
			<g>
				<path style="fill:#407BFF;" d="M380.673,281.526H124.101c-2.143,0-3.88-1.737-3.88-3.88V90.344c0-2.143,1.737-3.88,3.88-3.88
					h256.573c2.143,0,3.879,1.737,3.879,3.88v187.302C384.553,279.789,382.816,281.526,380.673,281.526z"/>
				<path style="opacity:0.6;fill:#FFFFFF;" d="M380.673,281.526H124.101c-2.143,0-3.88-1.737-3.88-3.88V90.344
					c0-2.143,1.737-3.88,3.88-3.88h256.573c2.143,0,3.879,1.737,3.879,3.88v187.302
					C384.553,279.789,382.816,281.526,380.673,281.526z"/>
			</g>
			<path style="opacity:0.3;fill:#FFFFFF;" d="M171.728,86.464h-46.561c-2.732,0-4.946,2.214-4.946,4.946V276.58
				c0,2.732,2.214,4.946,4.946,4.946h46.561V86.464z"/>
			<path style="fill:#263238;" d="M379.607,86.464h-254.44c-2.732,0-4.946,2.214-4.946,4.946v12.903h264.332V91.41
				C384.553,88.678,382.338,86.464,379.607,86.464z"/>
			<g>
				<path style="fill:#FFFFFF;" d="M128.857,92.795c-0.477,0-0.864-0.387-0.864-0.864c0-0.477,0.387-0.864,0.864-0.864h6.813
					c0.477,0,0.864,0.387,0.864,0.864c0,0.477-0.387,0.864-0.864,0.864H128.857z"/>
				<path style="fill:#FFFFFF;" d="M128.857,96.253c-0.477,0-0.864-0.387-0.864-0.864c0-0.477,0.387-0.864,0.864-0.864h6.813
					c0.477,0,0.864,0.387,0.864,0.864c0,0.477-0.387,0.864-0.864,0.864H128.857z"/>
				<path style="fill:#FFFFFF;" d="M128.857,99.71c-0.477,0-0.864-0.387-0.864-0.864c0-0.477,0.387-0.864,0.864-0.864h6.813
					c0.477,0,0.864,0.387,0.864,0.864c0,0.477-0.387,0.864-0.864,0.864H128.857z"/>
			</g>
		</g>
		<path style="opacity:0.7;fill:#FFFFFF;" d="M180.828,117.979v57.353c0,1.211,0.981,2.192,2.192,2.192h17.897
			c1.21,0,2.192-0.981,2.192-2.192v-57.353c0-1.21-0.981-2.192-2.192-2.192H183.02C181.81,115.787,180.828,116.768,180.828,117.979z
			"/>
		<path style="opacity:0.4;fill:#FFFFFF;" d="M208.679,117.979v57.353c0,1.211,0.981,2.192,2.192,2.192h17.897
			c1.211,0,2.192-0.981,2.192-2.192v-57.353c0-1.21-0.981-2.192-2.192-2.192h-17.897
			C209.661,115.787,208.679,116.768,208.679,117.979z"/>
		<path style="opacity:0.7;fill:#FFFFFF;" d="M236.53,117.979v57.353c0,1.211,0.981,2.192,2.192,2.192h17.897
			c1.211,0,2.192-0.981,2.192-2.192v-57.353c0-1.21-0.981-2.192-2.192-2.192h-17.897C237.512,115.787,236.53,116.768,236.53,117.979
			z"/>
		<path style="opacity:0.4;fill:#FFFFFF;" d="M264.381,117.979v57.353c0,1.211,0.981,2.192,2.192,2.192h17.897
			c1.211,0,2.192-0.981,2.192-2.192v-57.353c0-1.21-0.981-2.192-2.192-2.192h-17.897
			C265.363,115.787,264.381,116.768,264.381,117.979z"/>
		<path style="opacity:0.7;fill:#FFFFFF;" d="M292.232,117.979v57.353c0,1.211,0.981,2.192,2.192,2.192h17.897
			c1.211,0,2.192-0.981,2.192-2.192v-57.353c0-1.21-0.981-2.192-2.192-2.192h-17.897
			C293.214,115.787,292.232,116.768,292.232,117.979z"/>
		<path style="opacity:0.4;fill:#FFFFFF;" d="M320.083,117.979v57.353c0,1.211,0.981,2.192,2.192,2.192h17.897
			c1.21,0,2.192-0.981,2.192-2.192v-57.353c0-1.21-0.981-2.192-2.192-2.192h-17.897
			C321.065,115.787,320.083,116.768,320.083,117.979z"/>
		<path style="opacity:0.7;fill:#FFFFFF;" d="M347.934,117.979v57.353c0,1.211,0.981,2.192,2.192,2.192h17.897
			c1.211,0,2.192-0.981,2.192-2.192v-57.353c0-1.21-0.981-2.192-2.192-2.192h-17.897
			C348.915,115.787,347.934,116.768,347.934,117.979z"/>
		<g>
			<path d="M238.938,215.378h-0.794v1.023h-1.101v-1.023h-2.624v-0.759l2.298-3.091h1.183l-2.13,2.931h1.309v-0.912h1.066v0.912
				h0.794V215.378z"/>
			<path d="M242.45,213.769c0.327,0.274,0.491,0.641,0.491,1.1c0,0.298-0.074,0.568-0.223,0.811
				c-0.149,0.244-0.375,0.439-0.678,0.585c-0.304,0.146-0.679,0.219-1.125,0.219c-0.344,0-0.681-0.045-1.013-0.136
				c-0.332-0.09-0.614-0.219-0.846-0.387l0.446-0.863c0.185,0.139,0.399,0.247,0.641,0.324c0.241,0.077,0.489,0.115,0.744,0.115
				c0.283,0,0.506-0.055,0.669-0.167c0.162-0.111,0.244-0.267,0.244-0.467c0-0.209-0.085-0.367-0.255-0.473
				c-0.169-0.107-0.462-0.161-0.88-0.161h-1.247l0.251-2.743h2.973v0.905h-2.033l-0.077,0.926h0.397
				C241.616,213.358,242.123,213.495,242.45,213.769z"/>
			<path d="M243.585,213.793c-0.225-0.243-0.337-0.57-0.337-0.978c0-0.408,0.113-0.735,0.337-0.979
				c0.225-0.243,0.517-0.365,0.874-0.365s0.647,0.122,0.87,0.365c0.223,0.244,0.334,0.57,0.334,0.979
				c0,0.408-0.112,0.734-0.334,0.978c-0.223,0.244-0.513,0.366-0.87,0.366S243.81,214.038,243.585,213.793z M244.832,213.393
				c0.09-0.13,0.136-0.323,0.136-0.578c0-0.255-0.045-0.448-0.136-0.578c-0.091-0.13-0.215-0.195-0.373-0.195
				c-0.153,0-0.276,0.067-0.369,0.199c-0.093,0.133-0.139,0.324-0.139,0.575c0,0.25,0.046,0.442,0.139,0.575
				c0.093,0.132,0.216,0.198,0.369,0.198C244.617,213.588,244.741,213.523,244.832,213.393z M247.362,211.527h0.829l-3.328,4.874
				h-0.829L247.362,211.527z M247.143,216.294c-0.184-0.109-0.326-0.266-0.428-0.47c-0.102-0.204-0.153-0.441-0.153-0.71
				c0-0.27,0.051-0.506,0.153-0.71c0.102-0.204,0.245-0.361,0.428-0.47c0.183-0.109,0.391-0.164,0.623-0.164
				c0.357,0,0.649,0.122,0.874,0.365c0.225,0.244,0.337,0.57,0.337,0.979c0,0.408-0.113,0.734-0.337,0.978
				c-0.225,0.244-0.517,0.365-0.874,0.365C247.534,216.457,247.326,216.402,247.143,216.294z M248.139,215.688
				c0.091-0.133,0.136-0.324,0.136-0.575c0-0.251-0.045-0.442-0.136-0.575c-0.09-0.132-0.215-0.199-0.372-0.199
				c-0.153,0-0.276,0.065-0.369,0.195c-0.093,0.13-0.139,0.323-0.139,0.578c0,0.255,0.047,0.448,0.139,0.578
				c0.093,0.13,0.216,0.195,0.369,0.195C247.924,215.886,248.048,215.82,248.139,215.688z"/>
		</g>
		<g>
			<path d="M314.506,213.533c0.255,0.125,0.457,0.303,0.605,0.532c0.149,0.23,0.223,0.496,0.223,0.797
				c0,0.325-0.081,0.611-0.243,0.857c-0.163,0.246-0.385,0.435-0.666,0.567c-0.28,0.133-0.593,0.199-0.936,0.199
				c-0.682,0-1.216-0.209-1.601-0.626c-0.385-0.418-0.578-1.015-0.578-1.79c0-0.552,0.105-1.026,0.314-1.421
				c0.208-0.394,0.499-0.693,0.873-0.898c0.374-0.204,0.807-0.307,1.299-0.307c0.26,0,0.509,0.029,0.75,0.087
				c0.239,0.059,0.442,0.141,0.609,0.247l-0.418,0.829c-0.242-0.162-0.545-0.243-0.911-0.243c-0.413,0-0.741,0.121-0.982,0.362
				c-0.242,0.242-0.371,0.592-0.39,1.051c0.288-0.288,0.69-0.431,1.204-0.431C313.967,213.345,314.251,213.408,314.506,213.533z
				 M314.016,215.447c0.151-0.13,0.225-0.306,0.225-0.529c0-0.223-0.075-0.4-0.225-0.533c-0.152-0.133-0.352-0.199-0.603-0.199
				c-0.247,0-0.448,0.068-0.606,0.205c-0.158,0.137-0.236,0.313-0.236,0.526c0,0.214,0.077,0.387,0.23,0.522
				c0.153,0.135,0.361,0.202,0.626,0.202C313.668,215.642,313.864,215.578,314.016,215.447z"/>
			<path d="M318.938,213.769c0.327,0.274,0.492,0.641,0.492,1.1c0,0.298-0.075,0.568-0.223,0.811
				c-0.149,0.244-0.375,0.439-0.679,0.585c-0.305,0.146-0.68,0.219-1.125,0.219c-0.344,0-0.681-0.045-1.012-0.136
				c-0.332-0.09-0.614-0.219-0.847-0.387l0.446-0.863c0.186,0.139,0.4,0.247,0.641,0.324c0.24,0.077,0.489,0.115,0.745,0.115
				c0.283,0,0.505-0.055,0.669-0.167c0.162-0.111,0.244-0.267,0.244-0.467c0-0.209-0.085-0.367-0.255-0.473
				c-0.169-0.107-0.462-0.161-0.88-0.161h-1.246l0.25-2.743h2.973v0.905h-2.033l-0.076,0.926h0.397
				C318.103,213.358,318.611,213.495,318.938,213.769z"/>
			<path d="M320.073,213.793c-0.225-0.243-0.337-0.57-0.337-0.978c0-0.408,0.112-0.735,0.337-0.979
				c0.225-0.243,0.517-0.365,0.874-0.365c0.357,0,0.647,0.122,0.87,0.365c0.223,0.244,0.334,0.57,0.334,0.979
				c0,0.408-0.111,0.734-0.334,0.978c-0.223,0.244-0.513,0.366-0.87,0.366C320.59,214.159,320.298,214.038,320.073,213.793z
				 M321.319,213.393c0.091-0.13,0.136-0.323,0.136-0.578c0-0.255-0.045-0.448-0.136-0.578c-0.091-0.13-0.214-0.195-0.372-0.195
				c-0.153,0-0.276,0.067-0.37,0.199c-0.092,0.133-0.138,0.324-0.138,0.575c0,0.25,0.046,0.442,0.138,0.575
				c0.093,0.132,0.217,0.198,0.37,0.198C321.105,213.588,321.228,213.523,321.319,213.393z M323.85,211.527h0.828l-3.328,4.874
				h-0.828L323.85,211.527z M323.631,216.294c-0.184-0.109-0.326-0.266-0.428-0.47c-0.102-0.204-0.153-0.441-0.153-0.71
				c0-0.27,0.051-0.506,0.153-0.71c0.102-0.204,0.244-0.361,0.428-0.47c0.183-0.109,0.391-0.164,0.622-0.164
				c0.357,0,0.649,0.122,0.874,0.365c0.225,0.244,0.337,0.57,0.337,0.979c0,0.408-0.112,0.734-0.337,0.978
				c-0.225,0.244-0.517,0.365-0.874,0.365C324.022,216.457,323.814,216.402,323.631,216.294z M324.626,215.688
				c0.091-0.133,0.136-0.324,0.136-0.575c0-0.251-0.045-0.442-0.136-0.575c-0.09-0.132-0.214-0.199-0.372-0.199
				c-0.153,0-0.276,0.065-0.368,0.195c-0.093,0.13-0.139,0.323-0.139,0.578c0,0.255,0.046,0.448,0.139,0.578
				c0.092,0.13,0.215,0.195,0.368,0.195C324.412,215.886,324.536,215.82,324.626,215.688z"/>
		</g>
		<g>
			<path style="fill:#FFFFFF;" d="M329.368,97.967c-0.279,0.271-0.68,0.44-1.205,0.504v0.78h-0.697v-0.759
				c-0.344-0.019-0.67-0.079-0.982-0.181c-0.311-0.102-0.561-0.227-0.752-0.376l0.383-0.849c0.177,0.13,0.384,0.239,0.62,0.327
				c0.237,0.088,0.481,0.144,0.731,0.167v-1.163c-0.329-0.079-0.608-0.167-0.835-0.265c-0.227-0.098-0.418-0.24-0.571-0.428
				c-0.153-0.188-0.23-0.438-0.23-0.748c0-0.385,0.14-0.716,0.421-0.992c0.281-0.276,0.686-0.445,1.215-0.505v-0.773h0.697v0.759
				c0.571,0.046,1.042,0.188,1.413,0.425l-0.348,0.857c-0.348-0.2-0.703-0.321-1.065-0.362v1.183c0.325,0.075,0.6,0.159,0.825,0.255
				c0.225,0.095,0.415,0.236,0.568,0.424c0.153,0.188,0.23,0.435,0.23,0.741C329.785,97.369,329.646,97.695,329.368,97.967z
				 M327.084,95.206c0.088,0.074,0.216,0.137,0.383,0.188v-0.989c-0.176,0.042-0.306,0.108-0.39,0.198
				c-0.083,0.091-0.125,0.196-0.125,0.317C326.952,95.037,326.995,95.132,327.084,95.206z M328.539,97.371
				c0.083-0.083,0.125-0.183,0.125-0.299c0-0.116-0.043-0.211-0.129-0.285c-0.086-0.074-0.21-0.139-0.372-0.195v0.961
				C328.33,97.515,328.455,97.454,328.539,97.371z"/>
			<path style="fill:#FFFFFF;" d="M332.062,93.542v4.874h-1.128v-3.969h-0.975v-0.905H332.062z"/>
			<path style="fill:#FFFFFF;" d="M336.553,97.497v0.919h-3.683v-0.731l1.88-1.776c0.2-0.19,0.334-0.354,0.404-0.491
				c0.07-0.137,0.104-0.273,0.104-0.407c0-0.195-0.066-0.345-0.198-0.449c-0.133-0.105-0.326-0.156-0.581-0.156
				c-0.214,0-0.406,0.04-0.578,0.121c-0.171,0.082-0.316,0.204-0.431,0.365l-0.822-0.529c0.19-0.283,0.453-0.504,0.787-0.665
				c0.334-0.16,0.717-0.24,1.149-0.24c0.362,0,0.679,0.059,0.95,0.178c0.272,0.118,0.483,0.285,0.634,0.501
				c0.151,0.216,0.227,0.47,0.227,0.763c0,0.265-0.056,0.513-0.167,0.745c-0.111,0.232-0.327,0.497-0.647,0.794l-1.121,1.058
				H336.553z"/>
			<path style="fill:#FFFFFF;" d="M337.249,98.276c-0.13-0.129-0.195-0.292-0.195-0.487c0-0.199,0.065-0.36,0.195-0.484
				c0.13-0.123,0.29-0.184,0.48-0.184c0.19,0,0.35,0.062,0.481,0.184c0.13,0.123,0.195,0.285,0.195,0.484
				c0,0.195-0.065,0.358-0.195,0.487c-0.13,0.13-0.29,0.195-0.481,0.195C337.539,98.471,337.379,98.406,337.249,98.276z"/>
			<path style="fill:#FFFFFF;" d="M339.832,98.2c-0.316-0.199-0.563-0.488-0.741-0.867c-0.179-0.379-0.268-0.83-0.268-1.355
				c0-0.524,0.09-0.976,0.268-1.354c0.179-0.379,0.426-0.667,0.741-0.867c0.316-0.199,0.675-0.299,1.079-0.299
				c0.403,0,0.763,0.1,1.079,0.299c0.316,0.2,0.563,0.489,0.741,0.867c0.179,0.378,0.268,0.83,0.268,1.354
				c0,0.525-0.09,0.976-0.268,1.355s-0.426,0.667-0.741,0.867c-0.316,0.2-0.676,0.299-1.079,0.299
				C340.508,98.499,340.148,98.399,339.832,98.2z M341.611,97.163c0.169-0.255,0.254-0.65,0.254-1.184
				c0-0.534-0.085-0.928-0.254-1.183c-0.17-0.255-0.403-0.383-0.7-0.383c-0.293,0-0.524,0.128-0.693,0.383
				c-0.17,0.255-0.254,0.65-0.254,1.183c0,0.534,0.084,0.929,0.254,1.184c0.169,0.255,0.4,0.383,0.693,0.383
				C341.209,97.545,341.441,97.418,341.611,97.163z"/>
			<path style="fill:#FFFFFF;" d="M346.864,94.081c0.385,0.416,0.578,1.013,0.578,1.794c0,0.552-0.103,1.026-0.31,1.42
				c-0.207,0.395-0.498,0.694-0.874,0.898s-0.81,0.306-1.302,0.306c-0.26,0-0.509-0.029-0.745-0.087
				c-0.237-0.058-0.439-0.14-0.606-0.247l0.418-0.829c0.237,0.163,0.54,0.244,0.912,0.244c0.413,0,0.74-0.122,0.982-0.366
				c0.242-0.244,0.372-0.596,0.39-1.055c-0.292,0.293-0.696,0.439-1.211,0.439c-0.311,0-0.594-0.063-0.849-0.188
				c-0.255-0.126-0.458-0.303-0.606-0.533c-0.149-0.23-0.223-0.495-0.223-0.798c0-0.324,0.081-0.61,0.243-0.856
				c0.163-0.246,0.384-0.435,0.665-0.568c0.281-0.132,0.593-0.199,0.937-0.199C345.945,93.458,346.479,93.666,346.864,94.081z
				 M345.948,95.55c0.156-0.136,0.233-0.312,0.233-0.525c0-0.214-0.075-0.388-0.226-0.522c-0.151-0.134-0.359-0.202-0.623-0.202
				c-0.242,0-0.438,0.065-0.589,0.195c-0.151,0.13-0.226,0.306-0.226,0.529c0,0.223,0.075,0.4,0.226,0.533
				c0.151,0.132,0.352,0.198,0.603,0.198C345.592,95.756,345.793,95.687,345.948,95.55z"/>
			<path style="fill:#FFFFFF;" d="M351.874,96.327c0.128,0.195,0.192,0.42,0.192,0.675c0,0.302-0.086,0.565-0.258,0.791
				c-0.172,0.225-0.413,0.399-0.725,0.522c-0.311,0.123-0.671,0.184-1.079,0.184c-0.408,0-0.767-0.062-1.076-0.184
				c-0.309-0.123-0.548-0.297-0.717-0.522c-0.17-0.225-0.255-0.489-0.255-0.791c0-0.255,0.064-0.48,0.192-0.675
				c0.128-0.195,0.31-0.353,0.547-0.474c-0.181-0.111-0.32-0.252-0.418-0.421c-0.098-0.169-0.146-0.363-0.146-0.581
				c0-0.283,0.079-0.529,0.237-0.738c0.158-0.209,0.379-0.37,0.662-0.484c0.283-0.113,0.608-0.171,0.975-0.171
				c0.371,0,0.7,0.057,0.985,0.171c0.286,0.114,0.507,0.275,0.665,0.484c0.158,0.209,0.237,0.455,0.237,0.738
				c0,0.218-0.049,0.412-0.146,0.581c-0.098,0.17-0.239,0.31-0.425,0.421C351.562,95.974,351.746,96.132,351.874,96.327z
				 M350.676,97.479c0.165-0.128,0.247-0.298,0.247-0.512c0-0.213-0.082-0.383-0.247-0.509c-0.165-0.125-0.388-0.188-0.672-0.188
				c-0.279,0-0.499,0.063-0.662,0.188c-0.162,0.125-0.243,0.295-0.243,0.509c0,0.218,0.081,0.39,0.243,0.515
				c0.163,0.126,0.383,0.188,0.662,0.188C350.288,97.671,350.512,97.607,350.676,97.479z M349.458,94.45
				c-0.137,0.109-0.206,0.259-0.206,0.449c0,0.186,0.067,0.332,0.202,0.438c0.134,0.107,0.318,0.161,0.55,0.161
				s0.418-0.054,0.557-0.161c0.139-0.106,0.208-0.253,0.208-0.438c0-0.19-0.07-0.34-0.208-0.449
				c-0.139-0.109-0.325-0.164-0.557-0.164C349.777,94.286,349.595,94.341,349.458,94.45z"/>
			<path style="fill:#FFFFFF;" d="M352.81,98.276c-0.129-0.129-0.195-0.292-0.195-0.487c0-0.199,0.065-0.36,0.195-0.484
				c0.13-0.123,0.29-0.184,0.481-0.184c0.191,0,0.351,0.062,0.481,0.184c0.13,0.123,0.195,0.285,0.195,0.484
				c0,0.195-0.065,0.358-0.195,0.487c-0.13,0.13-0.29,0.195-0.481,0.195C353.1,98.471,352.94,98.406,352.81,98.276z"/>
			<path style="fill:#FFFFFF;" d="M357.667,95.784c0.327,0.274,0.491,0.641,0.491,1.1c0,0.298-0.074,0.568-0.223,0.811
				c-0.149,0.244-0.375,0.439-0.679,0.585c-0.304,0.146-0.679,0.219-1.125,0.219c-0.344,0-0.681-0.045-1.013-0.136
				c-0.332-0.09-0.614-0.219-0.846-0.387l0.446-0.863c0.185,0.139,0.399,0.247,0.641,0.324c0.241,0.077,0.489,0.115,0.744,0.115
				c0.283,0,0.506-0.055,0.669-0.167c0.163-0.111,0.244-0.267,0.244-0.467c0-0.209-0.085-0.367-0.255-0.473
				c-0.169-0.107-0.462-0.161-0.88-0.161h-1.247l0.251-2.743h2.973v0.905h-2.033l-0.077,0.926h0.397
				C356.832,95.373,357.34,95.51,357.667,95.784z"/>
			<path style="fill:#FFFFFF;" d="M359.627,98.2c-0.316-0.199-0.563-0.488-0.741-0.867c-0.179-0.379-0.268-0.83-0.268-1.355
				c0-0.524,0.09-0.976,0.268-1.354c0.179-0.379,0.426-0.667,0.741-0.867c0.316-0.199,0.675-0.299,1.079-0.299
				c0.403,0,0.763,0.1,1.079,0.299c0.316,0.2,0.563,0.489,0.742,0.867c0.179,0.378,0.268,0.83,0.268,1.354
				c0,0.525-0.09,0.976-0.268,1.355c-0.179,0.379-0.426,0.667-0.742,0.867c-0.316,0.2-0.675,0.299-1.079,0.299
				C360.302,98.499,359.943,98.399,359.627,98.2z M361.406,97.163c0.169-0.255,0.254-0.65,0.254-1.184
				c0-0.534-0.085-0.928-0.254-1.183c-0.17-0.255-0.403-0.383-0.7-0.383c-0.293,0-0.523,0.128-0.693,0.383
				c-0.17,0.255-0.254,0.65-0.254,1.183c0,0.534,0.084,0.929,0.254,1.184c0.169,0.255,0.4,0.383,0.693,0.383
				C361.003,97.545,361.236,97.418,361.406,97.163z"/>
			<path style="fill:#FFFFFF;" d="M365.182,93.542v4.874h-1.128v-3.969h-0.975v-0.905H365.182z"/>
			<path style="fill:#FFFFFF;" d="M366.191,98.276c-0.13-0.129-0.195-0.292-0.195-0.487c0-0.199,0.065-0.36,0.195-0.484
				c0.13-0.123,0.29-0.184,0.481-0.184s0.35,0.062,0.481,0.184c0.13,0.123,0.195,0.285,0.195,0.484c0,0.195-0.065,0.358-0.195,0.487
				c-0.13,0.13-0.29,0.195-0.481,0.195S366.322,98.406,366.191,98.276z"/>
			<path style="fill:#FFFFFF;" d="M368.775,98.2c-0.316-0.199-0.563-0.488-0.742-0.867c-0.179-0.379-0.268-0.83-0.268-1.355
				c0-0.524,0.09-0.976,0.268-1.354c0.179-0.379,0.426-0.667,0.742-0.867c0.316-0.199,0.675-0.299,1.079-0.299
				c0.403,0,0.763,0.1,1.079,0.299c0.316,0.2,0.563,0.489,0.741,0.867c0.179,0.378,0.268,0.83,0.268,1.354
				c0,0.525-0.09,0.976-0.268,1.355c-0.179,0.379-0.426,0.667-0.741,0.867c-0.316,0.2-0.675,0.299-1.079,0.299
				C369.45,98.499,369.091,98.399,368.775,98.2z M370.554,97.163c0.169-0.255,0.254-0.65,0.254-1.184
				c0-0.534-0.085-0.928-0.254-1.183c-0.17-0.255-0.403-0.383-0.7-0.383c-0.293,0-0.523,0.128-0.693,0.383
				c-0.17,0.255-0.254,0.65-0.254,1.183c0,0.534,0.084,0.929,0.254,1.184c0.169,0.255,0.4,0.383,0.693,0.383
				C370.151,97.545,370.384,97.418,370.554,97.163z"/>
			<path style="fill:#FFFFFF;" d="M373.502,98.2c-0.316-0.199-0.563-0.488-0.741-0.867c-0.179-0.379-0.268-0.83-0.268-1.355
				c0-0.524,0.09-0.976,0.268-1.354c0.179-0.379,0.426-0.667,0.741-0.867c0.316-0.199,0.676-0.299,1.079-0.299
				c0.403,0,0.763,0.1,1.079,0.299c0.316,0.2,0.563,0.489,0.741,0.867c0.179,0.378,0.268,0.83,0.268,1.354
				c0,0.525-0.09,0.976-0.268,1.355c-0.179,0.379-0.426,0.667-0.741,0.867c-0.316,0.2-0.675,0.299-1.079,0.299
				C374.178,98.499,373.818,98.399,373.502,98.2z M375.281,97.163c0.169-0.255,0.254-0.65,0.254-1.184
				c0-0.534-0.085-0.928-0.254-1.183c-0.17-0.255-0.403-0.383-0.7-0.383c-0.293,0-0.524,0.128-0.693,0.383
				c-0.17,0.255-0.254,0.65-0.254,1.183c0,0.534,0.084,0.929,0.254,1.184c0.169,0.255,0.4,0.383,0.693,0.383
				C374.879,97.545,375.111,97.418,375.281,97.163z"/>
		</g>
		<g>
			<path d="M189.88,185.243v4.874h-1.128v-3.969h-0.975v-0.905H189.88z"/>
			<path d="M191.035,185.243h2.214c0.529,0,0.997,0.101,1.403,0.303c0.406,0.202,0.722,0.486,0.947,0.853
				c0.225,0.367,0.337,0.794,0.337,1.281c0,0.487-0.112,0.914-0.337,1.281c-0.225,0.367-0.541,0.651-0.947,0.853
				c-0.406,0.202-0.874,0.303-1.403,0.303h-2.214V185.243z M193.194,189.19c0.487,0,0.876-0.136,1.166-0.407
				c0.29-0.271,0.435-0.639,0.435-1.104c0-0.464-0.145-0.832-0.435-1.103c-0.29-0.272-0.679-0.408-1.166-0.408h-1.031v3.022H193.194
				z"/>
		</g>
		<g>
			<path d="M216.558,185.243v4.874h-1.128v-3.969h-0.975v-0.905H216.558z"/>
			<path d="M225.08,185.243l-1.594,4.874h-1.212l-1.072-3.301l-1.107,3.301h-1.205l-1.602-4.874h1.17l1.1,3.426l1.149-3.426h1.045
				l1.114,3.453l1.135-3.453H225.08z"/>
		</g>
		<g>
			<path d="M245.133,185.243v4.874h-1.128v-3.969h-0.975v-0.905H245.133z"/>
			<path d="M250.724,190.117l-0.007-2.925l-1.434,2.409h-0.509l-1.427-2.346v2.862h-1.058v-4.874h0.933l1.825,3.029l1.796-3.029
				h0.926l0.014,4.874H250.724z"/>
		</g>
		<g>
			<path style="fill:#407BFF;" d="M280.573,193.382H270.47c-2.209,0-4-1.791-4-4v-3.14c0-2.209,1.791-4,4-4h10.103
				c2.209,0,4,1.791,4,4v3.14C284.573,191.591,282.783,193.382,280.573,193.382z"/>
			<g>
				<path style="fill:#FFFFFF;" d="M273.666,187.704c0.227,0.248,0.341,0.556,0.341,0.923c0,0.283-0.075,0.545-0.223,0.784
					c-0.149,0.239-0.375,0.43-0.679,0.574c-0.304,0.144-0.677,0.216-1.117,0.216c-0.344,0-0.681-0.045-1.013-0.136
					c-0.332-0.09-0.614-0.219-0.846-0.387l0.438-0.863c0.186,0.139,0.401,0.247,0.644,0.324c0.244,0.077,0.493,0.115,0.748,0.115
					c0.283,0,0.506-0.054,0.669-0.164c0.162-0.109,0.244-0.263,0.244-0.463c0-0.399-0.304-0.598-0.913-0.598h-0.515v-0.745
					l1.002-1.135h-2.075v-0.905h3.412v0.731l-1.1,1.253C273.112,187.297,273.438,187.456,273.666,187.704z"/>
				<path style="fill:#FFFFFF;" d="M279.271,190.117l-0.007-2.925l-1.434,2.409h-0.509l-1.427-2.346v2.862h-1.058v-4.874h0.933
					l1.824,3.029l1.796-3.029h0.926l0.014,4.874H279.271z"/>
			</g>
		</g>
		<g>
			<path d="M301.298,187.248c0.255,0.125,0.457,0.303,0.606,0.532c0.149,0.23,0.223,0.496,0.223,0.797
				c0,0.325-0.082,0.611-0.243,0.857c-0.163,0.246-0.385,0.435-0.665,0.567c-0.281,0.133-0.593,0.199-0.936,0.199
				c-0.682,0-1.216-0.209-1.601-0.626c-0.385-0.418-0.578-1.015-0.578-1.79c0-0.552,0.105-1.026,0.314-1.421
				c0.209-0.394,0.5-0.693,0.873-0.898c0.374-0.204,0.807-0.307,1.298-0.307c0.26,0,0.509,0.029,0.749,0.087
				c0.239,0.059,0.442,0.141,0.609,0.247l-0.418,0.829c-0.241-0.162-0.545-0.243-0.912-0.243c-0.413,0-0.741,0.121-0.982,0.362
				c-0.242,0.242-0.372,0.592-0.39,1.051c0.288-0.288,0.689-0.431,1.204-0.431C300.759,187.06,301.043,187.123,301.298,187.248z
				 M300.807,189.163c0.151-0.13,0.226-0.306,0.226-0.529c0-0.223-0.075-0.4-0.226-0.533c-0.151-0.133-0.352-0.199-0.603-0.199
				c-0.246,0-0.448,0.068-0.606,0.205c-0.158,0.137-0.237,0.313-0.237,0.526c0,0.214,0.077,0.387,0.23,0.522
				c0.153,0.135,0.362,0.202,0.626,0.202C300.46,189.358,300.656,189.293,300.807,189.163z"/>
			<path d="M307.279,190.117l-0.007-2.925l-1.434,2.409h-0.508l-1.428-2.346v2.862h-1.058v-4.874h0.933l1.825,3.029l1.796-3.029
				h0.926l0.014,4.874H307.279z"/>
		</g>
		<g>
			<path d="M329.657,185.243v4.874h-1.128v-3.969h-0.975v-0.905H329.657z"/>
			<path d="M333.152,188.39v1.727h-1.127v-1.741l-1.888-3.133h1.198l1.302,2.165l1.302-2.165h1.107L333.152,188.39z"/>
		</g>
		<g>
			<path d="M358.225,187.704c0.227,0.248,0.341,0.556,0.341,0.923c0,0.283-0.075,0.545-0.223,0.784
				c-0.149,0.239-0.375,0.43-0.679,0.574c-0.304,0.144-0.677,0.216-1.117,0.216c-0.344,0-0.681-0.045-1.013-0.136
				c-0.332-0.09-0.614-0.219-0.846-0.387l0.438-0.863c0.186,0.139,0.401,0.247,0.644,0.324c0.244,0.077,0.493,0.115,0.748,0.115
				c0.283,0,0.506-0.054,0.668-0.164c0.163-0.109,0.244-0.263,0.244-0.463c0-0.399-0.304-0.598-0.913-0.598h-0.515v-0.745
				l1.002-1.135h-2.075v-0.905h3.412v0.731l-1.1,1.253C357.67,187.297,357.997,187.456,358.225,187.704z"/>
			<path d="M361.664,188.39v1.727h-1.127v-1.741l-1.888-3.133h1.198l1.302,2.165l1.302-2.165h1.107L361.664,188.39z"/>
		</g>
		<g>
			<path style="fill:#407BFF;" d="M178.043,159.421L178.043,159.421c-0.114-0.76,0.41-1.469,1.17-1.584l26.304-3.946l28.043-11.633
				l28.181-3.757l27.651,9.678l27.616-11.967h27.914l26.315-8.772c0.729-0.243,1.518,0.151,1.761,0.88l0,0.001
				c0.243,0.73-0.151,1.518-0.881,1.761l-26.745,8.914h-27.788l-28.086,12.171l-28.051-9.818l-27.339,3.645l-28.01,11.626
				l-26.474,3.971C178.866,160.705,178.158,160.181,178.043,159.421z"/>
		</g>
		<g>
			<path style="fill:#263238;" d="M205.501,165.539l-27.26-22.262c-0.596-0.486-0.684-1.363-0.198-1.959v0
				c0.486-0.596,1.363-0.684,1.959-0.198l26.285,21.465l27.101-4.517l27.729-10.167l27.971-13.499l28.119-7.498l27.796,3.706
				l26.223-9.178c0.726-0.254,1.52,0.128,1.774,0.854l0,0.001c0.254,0.726-0.128,1.52-0.854,1.774l-26.851,9.398l-27.906-3.721
				l-27.455,7.322l-27.732,13.403l-28.228,10.332L205.501,165.539z"/>
		</g>
		<g>
			
				<ellipse transform="matrix(0.2298 -0.9732 0.9732 0.2298 -4.4206 234.569)" style="fill:#407BFF;" cx="145.985" cy="120.077" rx="7.576" ry="7.576"/>
			<path style="opacity:0.5;fill:#FFFFFF;" d="M164.287,143.771h-36.604c-0.85,0-1.539-0.689-1.539-1.538v-7.696
				c0-0.85,0.689-1.539,1.539-1.539h36.604c0.85,0,1.539,0.689,1.539,1.539v7.696C165.826,143.083,165.137,143.771,164.287,143.771z
				"/>
			<polygon style="fill:#407BFF;" points="131.292,139.987 129.711,140.818 130.013,139.057 128.734,137.81 130.501,137.553 
				131.292,135.952 132.083,137.553 133.85,137.81 132.571,139.057 132.873,140.818 			"/>
			<polygon style="fill:#407BFF;" points="138.638,139.987 137.057,140.818 137.359,139.057 136.08,137.81 137.848,137.553 
				138.638,135.952 139.429,137.553 141.197,137.81 139.918,139.057 140.22,140.818 			"/>
			<polygon style="fill:#407BFF;" points="145.985,139.987 144.404,140.818 144.706,139.057 143.426,137.81 145.194,137.553 
				145.985,135.952 146.775,137.553 148.543,137.81 147.264,139.057 147.566,140.818 			"/>
			<polygon style="opacity:0.9;fill:#FFFFFF;" points="153.331,139.987 151.75,140.818 152.052,139.057 150.773,137.81 
				152.541,137.553 153.331,135.952 154.122,137.553 155.89,137.81 154.611,139.057 154.913,140.818 			"/>
			<polygon style="opacity:0.9;fill:#FFFFFF;" points="160.678,139.987 159.096,140.818 159.398,139.057 158.119,137.81 
				159.887,137.553 160.678,135.952 161.468,137.553 163.236,137.81 161.957,139.057 162.259,140.818 			"/>
		</g>
		<g>
			
				<ellipse transform="matrix(0.2298 -0.9732 0.9732 0.2298 -45.0025 266.6863)" style="fill:#263238;" cx="145.985" cy="161.775" rx="7.576" ry="7.576"/>
			
				<ellipse transform="matrix(0.2298 -0.9732 0.9732 0.2298 -45.0025 266.6863)" style="opacity:0.7;fill:#FFFFFF;" cx="145.985" cy="161.775" rx="7.576" ry="7.576"/>
			<path style="opacity:0.5;fill:#FFFFFF;" d="M164.287,185.469h-36.604c-0.85,0-1.539-0.689-1.539-1.538v-7.696
				c0-0.85,0.689-1.539,1.539-1.539h36.604c0.85,0,1.539,0.689,1.539,1.539v7.696C165.826,184.78,165.137,185.469,164.287,185.469z"
				/>
			<polygon style="fill:#407BFF;" points="131.292,181.684 129.711,182.515 130.013,180.755 128.734,179.508 130.501,179.251 
				131.292,177.649 132.083,179.251 133.85,179.508 132.571,180.755 132.873,182.515 			"/>
			<polygon style="fill:#407BFF;" points="138.638,181.684 137.057,182.515 137.359,180.755 136.08,179.508 137.848,179.251 
				138.638,177.649 139.429,179.251 141.197,179.508 139.918,180.755 140.22,182.515 			"/>
			<polygon style="opacity:0.9;fill:#FFFFFF;" points="145.985,181.684 144.404,182.515 144.706,180.755 143.426,179.508 
				145.194,179.251 145.985,177.649 146.775,179.251 148.543,179.508 147.264,180.755 147.566,182.515 			"/>
			<polygon style="opacity:0.9;fill:#FFFFFF;" points="153.331,181.684 151.75,182.515 152.052,180.755 150.773,179.508 
				152.541,179.251 153.331,177.649 154.122,179.251 155.89,179.508 154.611,180.755 154.913,182.515 			"/>
			<polygon style="opacity:0.9;fill:#FFFFFF;" points="160.678,181.684 159.096,182.515 159.398,180.755 158.119,179.508 
				159.887,179.251 160.678,177.649 161.468,179.251 163.236,179.508 161.957,180.755 162.259,182.515 			"/>
		</g>
		<g>
			
				<ellipse transform="matrix(0.7071 -0.7071 0.7071 0.7071 -101.1184 162.8224)" style="fill:#407BFF;" cx="145.985" cy="203.472" rx="7.576" ry="7.576"/>
			
				<ellipse transform="matrix(0.7071 -0.7071 0.7071 0.7071 -101.1184 162.8224)" style="opacity:0.3;fill:#FFFFFF;" cx="145.985" cy="203.472" rx="7.576" ry="7.576"/>
			<path style="opacity:0.5;fill:#FFFFFF;" d="M164.287,227.166h-36.604c-0.85,0-1.539-0.689-1.539-1.538v-7.696
				c0-0.85,0.689-1.539,1.539-1.539h36.604c0.85,0,1.539,0.689,1.539,1.539v7.696C165.826,226.477,165.137,227.166,164.287,227.166z
				"/>
			<polygon style="fill:#407BFF;" points="131.292,223.381 129.711,224.213 130.013,222.452 128.734,221.205 130.501,220.948 
				131.292,219.346 132.083,220.948 133.85,221.205 132.571,222.452 132.873,224.213 			"/>
			<polygon style="fill:#407BFF;" points="138.638,223.381 137.057,224.213 137.359,222.452 136.08,221.205 137.848,220.948 
				138.638,219.346 139.429,220.948 141.197,221.205 139.918,222.452 140.22,224.213 			"/>
			<polygon style="fill:#407BFF;" points="145.985,223.381 144.404,224.213 144.706,222.452 143.426,221.205 145.194,220.948 
				145.985,219.346 146.775,220.948 148.543,221.205 147.264,222.452 147.566,224.213 			"/>
			<polygon style="fill:#407BFF;" points="153.331,223.381 151.75,224.213 152.052,222.452 150.773,221.205 152.541,220.948 
				153.331,219.346 154.122,220.948 155.89,221.205 154.611,222.452 154.913,224.213 			"/>
			<polygon style="opacity:0.9;fill:#FFFFFF;" points="160.678,223.381 159.096,224.213 159.398,222.452 158.119,221.205 
				159.887,220.948 160.678,219.346 161.468,220.948 163.236,221.205 161.957,222.452 162.259,224.213 			"/>
		</g>
		<g>
			
				<ellipse transform="matrix(0.7071 -0.7071 0.7071 0.7071 -130.6029 175.0353)" style="fill:#263238;" cx="145.985" cy="245.169" rx="7.576" ry="7.576"/>
			
				<ellipse transform="matrix(0.7071 -0.7071 0.7071 0.7071 -130.6029 175.0353)" style="opacity:0.5;fill:#FFFFFF;" cx="145.985" cy="245.169" rx="7.576" ry="7.576"/>
			<path style="opacity:0.5;fill:#FFFFFF;" d="M164.287,268.863h-36.604c-0.85,0-1.539-0.689-1.539-1.539v-7.696
				c0-0.85,0.689-1.539,1.539-1.539h36.604c0.85,0,1.539,0.689,1.539,1.539v7.696C165.826,268.174,165.137,268.863,164.287,268.863z
				"/>
			<polygon style="fill:#407BFF;" points="131.292,265.079 129.711,265.91 130.013,264.149 128.734,262.902 130.501,262.645 
				131.292,261.043 132.083,262.645 133.85,262.902 132.571,264.149 132.873,265.91 			"/>
			<polygon style="fill:#407BFF;" points="138.638,265.079 137.057,265.91 137.359,264.149 136.08,262.902 137.848,262.645 
				138.638,261.043 139.429,262.645 141.197,262.902 139.918,264.149 140.22,265.91 			"/>
			<polygon style="opacity:0.9;fill:#FFFFFF;" points="145.985,265.079 144.404,265.91 144.706,264.149 143.426,262.902 
				145.194,262.645 145.985,261.043 146.775,262.645 148.543,262.902 147.264,264.149 147.566,265.91 			"/>
			<polygon style="fill:#407BFF;" points="145.985,265.079 144.404,265.91 144.706,264.149 143.426,262.902 145.194,262.645 
				145.985,261.043 			"/>
			<polygon style="opacity:0.9;fill:#FFFFFF;" points="153.331,265.079 151.75,265.91 152.052,264.149 150.773,262.902 
				152.541,262.645 153.331,261.043 154.122,262.645 155.89,262.902 154.611,264.149 154.913,265.91 			"/>
			<polygon style="opacity:0.9;fill:#FFFFFF;" points="160.678,265.079 159.096,265.91 159.398,264.149 158.119,262.902 
				159.887,262.645 160.678,261.043 161.468,262.645 163.236,262.902 161.957,264.149 162.259,265.91 			"/>
		</g>
		<g>
			<rect x="180.828" y="251.954" style="fill:#407BFF;" width="8.111" height="15.348"/>
			<rect x="200.406" y="246.089" style="fill:#407BFF;" width="8.111" height="21.212"/>
			<rect x="219.983" y="235.316" style="fill:#407BFF;" width="8.111" height="31.985"/>
			<g>
				<rect x="190.617" y="243.136" style="fill:#263238;" width="8.111" height="24.165"/>
				<rect x="210.194" y="240.703" style="fill:#263238;" width="8.111" height="26.598"/>
				<rect x="229.772" y="241.332" style="fill:#263238;" width="8.111" height="25.969"/>
			</g>
			<g style="opacity:0.6;">
				<rect x="190.617" y="243.136" style="fill:#FFFFFF;" width="8.111" height="24.165"/>
				<rect x="210.194" y="240.703" style="fill:#FFFFFF;" width="8.111" height="26.598"/>
				<rect x="229.772" y="241.332" style="fill:#FFFFFF;" width="8.111" height="25.969"/>
			</g>
			<rect x="239.56" y="232.241" style="fill:#407BFF;" width="8.111" height="35.06"/>
		</g>
		<g>
			<polygon style="fill:#407BFF;" points="325.653,267.302 258.811,267.302 263.338,251.954 272.655,243.136 282.444,256.695 
				292.232,240.703 302.021,251.309 311.81,241.332 321.598,232.241 325.653,232.241 			"/>
			<polygon style="opacity:0.8;fill:#FFFFFF;" points="325.653,267.302 258.811,267.302 263.338,257.053 272.655,249.511 
				282.444,256.695 292.232,248.352 302.021,251.309 311.81,248.982 321.598,244.99 325.653,232.241 			"/>
		</g>
		<g>
			<path style="fill:#407BFF;" d="M353.455,216.75h16.294v0c0-8.999-7.295-16.294-16.294-16.294
				c-8.999,0-16.294,7.295-16.294,16.294v0H353.455z"/>
			<path style="opacity:0.5;fill:#FFFFFF;" d="M353.455,216.75h16.294v0c0-8.999-7.295-16.294-16.294-16.294
				c-8.999,0-16.294,7.295-16.294,16.294v0H353.455z"/>
			<path style="opacity:0.7;fill:#FFFFFF;" d="M364.977,205.228c-2.949-2.949-7.022-4.772-11.521-4.772
				c-8.999,0-16.294,7.295-16.294,16.294h16.294L364.977,205.228z"/>
			<path style="opacity:0.2;" d="M341.934,205.206l11.521,11.521v-16.294C348.956,200.433,344.883,202.257,341.934,205.206z"/>
			<path style="fill:#407BFF;" d="M341.934,205.206l11.521,11.521v-16.294C348.956,200.433,344.883,202.257,341.934,205.206z"/>
			<path style="opacity:0.5;fill:#FFFFFF;" d="M341.934,205.206l11.521,11.521v-16.294
				C348.956,200.433,344.883,202.257,341.934,205.206z"/>
			<path d="M362.441,208.935l-1.17-1.174l-7.372,7.353c-0.145-0.04-0.286-0.09-0.444-0.09c-0.94,0-1.703,0.762-1.703,1.703
				c0,0.94,0.762,1.703,1.703,1.703c0.94,0,1.702-0.762,1.702-1.703c0-0.156-0.049-0.296-0.089-0.439L362.441,208.935z"/>
		</g>
		<g>
			<path style="fill:#407BFF;" d="M353.455,242.356h16.294l0,0c0-8.999-7.295-16.294-16.294-16.294
				c-8.999,0-16.294,7.295-16.294,16.294l0,0H353.455z"/>
			<path style="opacity:0.5;fill:#FFFFFF;" d="M353.455,242.356h16.294l0,0c0-8.999-7.295-16.294-16.294-16.294
				c-8.999,0-16.294,7.295-16.294,16.294l0,0H353.455z"/>
			<path style="opacity:0.7;fill:#FFFFFF;" d="M364.977,230.835c-2.949-2.949-7.022-4.772-11.521-4.772
				c-8.999,0-16.294,7.295-16.294,16.294h16.294L364.977,230.835z"/>
			<path style="fill:#407BFF;" d="M341.934,230.812l11.521,11.521V226.04C348.956,226.04,344.883,227.863,341.934,230.812z"/>
			<path style="opacity:0.5;fill:#FFFFFF;" d="M341.934,230.812l11.521,11.521V226.04
				C348.956,226.04,344.883,227.863,341.934,230.812z"/>
			<path d="M354.284,240.876v-9.471h-1.657v9.471c-0.513,0.293-0.874,0.824-0.874,1.457c0,0.94,0.762,1.703,1.703,1.703
				c0.94,0,1.702-0.762,1.702-1.703C355.158,241.7,354.797,241.17,354.284,240.876z"/>
		</g>
		<g>
			<path style="fill:#407BFF;" d="M353.455,267.962h16.294v0c0-8.999-7.295-16.294-16.294-16.294
				c-8.999,0-16.294,7.295-16.294,16.294v0H353.455z"/>
			<path style="opacity:0.5;fill:#FFFFFF;" d="M353.455,267.962h16.294v0c0-8.999-7.295-16.294-16.294-16.294
				c-8.999,0-16.294,7.295-16.294,16.294v0H353.455z"/>
			<path style="opacity:0.7;fill:#FFFFFF;" d="M364.977,256.441c-2.949-2.949-7.022-4.772-11.521-4.772
				c-8.999,0-16.294,7.295-16.294,16.294h16.294L364.977,256.441z"/>
			<path style="fill:#407BFF;" d="M341.934,256.418l11.521,11.521v-16.294C348.956,251.646,344.883,253.47,341.934,256.418z"/>
			<path style="opacity:0.5;fill:#FFFFFF;" d="M341.934,256.418l11.521,11.521v-16.294
				C348.956,251.646,344.883,253.47,341.934,256.418z"/>
			<path d="M362.441,260.148l-1.17-1.174l-7.372,7.353c-0.145-0.04-0.286-0.09-0.444-0.09c-0.94,0-1.703,0.762-1.703,1.703
				c0,0.94,0.762,1.703,1.703,1.703c0.94,0,1.702-0.762,1.702-1.703c0-0.156-0.049-0.296-0.089-0.439L362.441,260.148z"/>
		</g>
		<g>
			<path style="fill:#407BFF;" d="M375.611,102.86l-10.949,0.119c-1.505,0.016-2.712,1.25-2.695,2.755l0.099,9.161
				c0.016,1.502,1.244,2.707,2.746,2.696l3.168-0.024l1.368,2.118c0.464,0.718,1.521,0.701,1.961-0.033l1.302-2.174l3.15-0.024
				c1.509-0.011,2.721-1.246,2.704-2.755l-0.099-9.143C378.349,104.05,377.116,102.843,375.611,102.86z"/>
			<g>
				<path style="fill:#FFFFFF;" d="M367.192,110.275c0.187,0.091,0.334,0.222,0.443,0.39c0.108,0.168,0.163,0.363,0.163,0.584
					c0,0.238-0.06,0.447-0.178,0.627c-0.12,0.181-0.281,0.319-0.488,0.416c-0.206,0.097-0.433,0.145-0.685,0.145
					c-0.501,0-0.892-0.153-1.174-0.459c-0.281-0.306-0.423-0.743-0.423-1.31c0-0.405,0.077-0.751,0.23-1.04
					c0.153-0.289,0.366-0.509,0.64-0.658c0.274-0.15,0.59-0.225,0.951-0.225c0.19,0,0.372,0.021,0.548,0.064
					c0.176,0.042,0.324,0.103,0.446,0.181l-0.305,0.606c-0.177-0.119-0.4-0.178-0.669-0.178c-0.302,0-0.542,0.088-0.718,0.265
					c-0.177,0.177-0.273,0.433-0.286,0.77c0.212-0.211,0.505-0.316,0.883-0.316C366.798,110.138,367.004,110.183,367.192,110.275z
					 M366.833,111.678c0.11-0.095,0.166-0.225,0.166-0.388s-0.056-0.293-0.166-0.39c-0.111-0.096-0.258-0.145-0.442-0.145
					c-0.179,0-0.327,0.05-0.443,0.151c-0.116,0.1-0.173,0.229-0.173,0.385c0,0.156,0.056,0.284,0.168,0.383
					c0.112,0.098,0.265,0.147,0.459,0.147C366.579,111.82,366.722,111.773,366.833,111.678z"/>
				<path style="fill:#FFFFFF;" d="M368.838,112.218c-0.23-0.146-0.412-0.358-0.543-0.635c-0.131-0.277-0.197-0.607-0.197-0.992
					s0.066-0.715,0.197-0.992c0.131-0.277,0.313-0.489,0.543-0.634c0.232-0.146,0.496-0.22,0.791-0.22
					c0.296,0,0.559,0.073,0.791,0.22c0.232,0.146,0.412,0.357,0.543,0.634c0.131,0.278,0.197,0.608,0.197,0.992
					s-0.066,0.715-0.197,0.992c-0.131,0.277-0.311,0.489-0.543,0.635c-0.232,0.146-0.494,0.219-0.791,0.219
					C369.334,112.437,369.07,112.364,368.838,112.218z M370.142,111.458c0.124-0.187,0.185-0.476,0.185-0.867
					c0-0.391-0.061-0.68-0.185-0.867c-0.125-0.187-0.295-0.28-0.513-0.28c-0.214,0-0.383,0.093-0.507,0.28
					c-0.124,0.187-0.187,0.476-0.187,0.867c0,0.391,0.062,0.68,0.187,0.867c0.123,0.187,0.293,0.281,0.507,0.281
					C369.847,111.739,370.017,111.645,370.142,111.458z"/>
				<path style="fill:#FFFFFF;" d="M371.748,110.466c-0.164-0.179-0.248-0.417-0.248-0.716c0-0.299,0.083-0.538,0.248-0.716
					c0.164-0.179,0.379-0.268,0.64-0.268c0.262,0,0.474,0.089,0.637,0.268c0.163,0.179,0.245,0.418,0.245,0.716
					c0,0.299-0.082,0.538-0.245,0.716c-0.163,0.179-0.376,0.268-0.637,0.268C372.126,110.734,371.912,110.645,371.748,110.466z
					 M372.661,110.173c0.066-0.095,0.1-0.236,0.1-0.423c0-0.187-0.034-0.328-0.1-0.423c-0.066-0.095-0.157-0.143-0.273-0.143
					c-0.112,0-0.202,0.049-0.27,0.145c-0.069,0.097-0.102,0.237-0.102,0.421c0,0.184,0.034,0.324,0.102,0.421
					c0.068,0.097,0.158,0.145,0.27,0.145C372.504,110.316,372.595,110.268,372.661,110.173z M374.514,108.807h0.608l-2.438,3.569
					h-0.608L374.514,108.807z M374.354,112.297c-0.134-0.08-0.239-0.195-0.314-0.344c-0.075-0.149-0.112-0.323-0.112-0.52
					c0-0.197,0.037-0.37,0.112-0.52c0.075-0.149,0.179-0.265,0.314-0.344c0.135-0.08,0.286-0.12,0.457-0.12
					c0.261,0,0.474,0.09,0.64,0.268c0.164,0.178,0.246,0.417,0.246,0.716c0,0.299-0.082,0.538-0.246,0.716
					c-0.166,0.179-0.379,0.268-0.64,0.268C374.64,112.417,374.488,112.377,374.354,112.297z M375.083,111.853
					c0.066-0.097,0.1-0.237,0.1-0.421c0-0.183-0.034-0.324-0.1-0.42c-0.066-0.097-0.158-0.146-0.273-0.146
					c-0.112,0-0.203,0.048-0.27,0.143c-0.068,0.095-0.102,0.236-0.102,0.423c0,0.187,0.034,0.329,0.102,0.423
					c0.067,0.095,0.158,0.143,0.27,0.143C374.925,111.999,375.017,111.95,375.083,111.853z"/>
			</g>
		</g>
		<g>
			<path style="fill:#263238;" d="M364.849,150.769l10.949-0.119c1.505-0.016,2.712-1.25,2.695-2.755l-0.099-9.161
				c-0.016-1.502-1.244-2.707-2.746-2.696l-3.168,0.024l-1.368-2.118c-0.464-0.718-1.521-0.701-1.961,0.033l-1.302,2.173
				l-3.15,0.024c-1.508,0.011-2.721,1.246-2.704,2.755l0.099,9.143C362.11,149.578,363.344,150.785,364.849,150.769z"/>
			<g>
				<path style="fill:#FFFFFF;" d="M367.297,143.949c0.239,0.201,0.359,0.469,0.359,0.806c0,0.217-0.054,0.415-0.163,0.594
					c-0.108,0.179-0.274,0.321-0.497,0.428c-0.223,0.107-0.498,0.161-0.824,0.161c-0.251,0-0.498-0.033-0.742-0.099
					c-0.243-0.067-0.449-0.161-0.619-0.283l0.326-0.632c0.136,0.102,0.293,0.181,0.469,0.237s0.359,0.084,0.545,0.084
					c0.207,0,0.371-0.041,0.489-0.122c0.12-0.082,0.179-0.195,0.179-0.342c0-0.153-0.062-0.269-0.187-0.347
					c-0.124-0.078-0.339-0.118-0.645-0.118h-0.913l0.183-2.009h2.177v0.663h-1.489l-0.056,0.678h0.291
					C366.686,143.648,367.057,143.749,367.297,143.949z"/>
				<path style="fill:#FFFFFF;" d="M368.731,145.719c-0.23-0.146-0.412-0.358-0.543-0.635c-0.131-0.277-0.197-0.607-0.197-0.992
					c0-0.384,0.066-0.715,0.197-0.992c0.131-0.277,0.313-0.489,0.543-0.634c0.232-0.146,0.496-0.22,0.791-0.22
					c0.296,0,0.559,0.074,0.791,0.22c0.232,0.146,0.412,0.357,0.543,0.634c0.131,0.278,0.197,0.608,0.197,0.992
					c0,0.384-0.066,0.715-0.197,0.992c-0.131,0.277-0.311,0.489-0.543,0.635c-0.232,0.146-0.494,0.219-0.791,0.219
					C369.227,145.938,368.963,145.865,368.731,145.719z M370.035,144.959c0.125-0.187,0.186-0.476,0.186-0.867
					c0-0.391-0.061-0.68-0.186-0.867c-0.124-0.187-0.295-0.28-0.513-0.28c-0.214,0-0.384,0.093-0.507,0.28
					c-0.125,0.187-0.187,0.476-0.187,0.867c0,0.391,0.062,0.68,0.187,0.867c0.123,0.187,0.293,0.281,0.507,0.281
					C369.74,145.24,369.91,145.146,370.035,144.959z"/>
				<path style="fill:#FFFFFF;" d="M371.641,143.967c-0.164-0.179-0.248-0.417-0.248-0.717c0-0.299,0.083-0.538,0.248-0.717
					c0.164-0.179,0.379-0.268,0.64-0.268c0.261,0,0.474,0.089,0.637,0.268c0.163,0.179,0.245,0.418,0.245,0.717
					c0,0.299-0.082,0.538-0.245,0.717c-0.163,0.179-0.376,0.268-0.637,0.268C372.019,144.235,371.805,144.146,371.641,143.967z
					 M372.553,143.674c0.066-0.095,0.1-0.236,0.1-0.423c0-0.187-0.034-0.328-0.1-0.423c-0.066-0.095-0.157-0.143-0.273-0.143
					c-0.112,0-0.202,0.049-0.27,0.145c-0.069,0.097-0.102,0.237-0.102,0.421c0,0.184,0.034,0.324,0.102,0.421
					c0.068,0.097,0.158,0.145,0.27,0.145C372.397,143.816,372.487,143.769,372.553,143.674z M374.407,142.307h0.608l-2.438,3.57
					h-0.608L374.407,142.307z M374.247,145.798c-0.134-0.08-0.239-0.195-0.314-0.344c-0.075-0.149-0.112-0.323-0.112-0.52
					c0-0.197,0.037-0.37,0.112-0.52c0.075-0.149,0.179-0.265,0.314-0.344c0.134-0.08,0.286-0.12,0.457-0.12
					c0.262,0,0.474,0.09,0.64,0.268c0.164,0.178,0.247,0.417,0.247,0.716c0,0.299-0.082,0.538-0.247,0.717
					c-0.165,0.179-0.378,0.268-0.64,0.268C374.533,145.918,374.381,145.878,374.247,145.798z M374.976,145.354
					c0.066-0.096,0.1-0.237,0.1-0.421c0-0.183-0.034-0.324-0.1-0.42c-0.066-0.097-0.158-0.146-0.273-0.146
					c-0.112,0-0.203,0.048-0.27,0.143c-0.069,0.095-0.102,0.236-0.102,0.423c0,0.187,0.034,0.329,0.102,0.423
					c0.067,0.095,0.158,0.143,0.27,0.143C374.818,145.5,374.91,145.451,374.976,145.354z"/>
			</g>
		</g>
		<g>
			<g>
				<path style="fill:#263238;" d="M260.753,213.689c-0.726,0-1.315-0.589-1.315-1.315c0-0.726,0.589-1.315,1.315-1.315h40.678
					c0.726,0,1.315,0.589,1.315,1.315c0,0.726-0.589,1.315-1.315,1.315H260.753z"/>
				<path style="fill:#263238;" d="M260.753,223.171c-0.726,0-1.315-0.589-1.315-1.315c0-0.726,0.589-1.315,1.315-1.315h32.749
					c0.726,0,1.315,0.589,1.315,1.315c0,0.726-0.589,1.315-1.315,1.315H260.753z"/>
				<path style="fill:#263238;" d="M260.753,218.43c-0.726,0-1.315-0.589-1.315-1.315c0-0.726,0.589-1.315,1.315-1.315h29.403
					c0.726,0,1.315,0.589,1.315,1.315c0,0.726-0.589,1.315-1.315,1.315H260.753z"/>
			</g>
			<g style="opacity:0.5;">
				<path style="fill:#FFFFFF;" d="M260.753,213.689c-0.726,0-1.315-0.589-1.315-1.315c0-0.726,0.589-1.315,1.315-1.315h40.678
					c0.726,0,1.315,0.589,1.315,1.315c0,0.726-0.589,1.315-1.315,1.315H260.753z"/>
				<path style="fill:#FFFFFF;" d="M260.753,223.171c-0.726,0-1.315-0.589-1.315-1.315c0-0.726,0.589-1.315,1.315-1.315h32.749
					c0.726,0,1.315,0.589,1.315,1.315c0,0.726-0.589,1.315-1.315,1.315H260.753z"/>
				<path style="fill:#FFFFFF;" d="M260.753,218.43c-0.726,0-1.315-0.589-1.315-1.315c0-0.726,0.589-1.315,1.315-1.315h29.403
					c0.726,0,1.315,0.589,1.315,1.315c0,0.726-0.589,1.315-1.315,1.315H260.753z"/>
			</g>
		</g>
		<g>
			<g>
				<path style="fill:#263238;" d="M182.143,213.689c-0.726,0-1.315-0.589-1.315-1.315c0-0.726,0.589-1.315,1.315-1.315h40.678
					c0.726,0,1.315,0.589,1.315,1.315c0,0.726-0.589,1.315-1.315,1.315H182.143z"/>
				<path style="fill:#263238;" d="M182.143,223.171c-0.726,0-1.315-0.589-1.315-1.315c0-0.726,0.589-1.315,1.315-1.315h23.825
					c0.726,0,1.315,0.589,1.315,1.315c0,0.726-0.589,1.315-1.315,1.315H182.143z"/>
				<path style="fill:#263238;" d="M182.143,218.43c-0.726,0-1.315-0.589-1.315-1.315c0-0.726,0.589-1.315,1.315-1.315h34.502
					c0.726,0,1.315,0.589,1.315,1.315c0,0.726-0.589,1.315-1.315,1.315H182.143z"/>
			</g>
			<g style="opacity:0.5;">
				<path style="fill:#FFFFFF;" d="M182.143,213.689c-0.726,0-1.315-0.589-1.315-1.315c0-0.726,0.589-1.315,1.315-1.315h40.678
					c0.726,0,1.315,0.589,1.315,1.315c0,0.726-0.589,1.315-1.315,1.315H182.143z"/>
				<path style="fill:#FFFFFF;" d="M182.143,223.171c-0.726,0-1.315-0.589-1.315-1.315c0-0.726,0.589-1.315,1.315-1.315h23.825
					c0.726,0,1.315,0.589,1.315,1.315c0,0.726-0.589,1.315-1.315,1.315H182.143z"/>
				<path style="fill:#FFFFFF;" d="M182.143,218.43c-0.726,0-1.315-0.589-1.315-1.315c0-0.726,0.589-1.315,1.315-1.315h34.502
					c0.726,0,1.315,0.589,1.315,1.315c0,0.726-0.589,1.315-1.315,1.315H182.143z"/>
			</g>
		</g>
	</g>
</g>
<g id="Character_2_1_">
	<g>
		<g>
			<path style="fill:#407BFF;" d="M355.322,223.874h-17.385c-0.86,0-1.618-0.697-1.694-1.557l-2.265-25.885
				c-0.075-0.86,0.561-1.558,1.421-1.558h17.385c0.86,0,1.618,0.697,1.694,1.558l2.265,25.885
				C356.818,223.177,356.182,223.874,355.322,223.874z"/>
			<path style="fill:#407BFF;" d="M356.322,223.874h-17.385c-0.86,0-1.618-0.697-1.694-1.557l-2.265-25.885
				c-0.075-0.86,0.561-1.558,1.421-1.558h17.385c0.86,0,1.618,0.697,1.694,1.558l2.265,25.885
				C357.818,223.177,357.182,223.874,356.322,223.874z"/>
			<path style="opacity:0.5;" d="M356.322,223.874h-17.385c-0.86,0-1.618-0.697-1.694-1.557l-2.265-25.885
				c-0.075-0.86,0.561-1.558,1.421-1.558h17.385c0.86,0,1.618,0.697,1.694,1.558l2.265,25.885
				C357.818,223.177,357.182,223.874,356.322,223.874z"/>
			<path style="opacity:0.6;fill:#FFFFFF;" d="M353.872,195.874h-17.385c-0.307,0-0.535,0.25-0.508,0.558l2.265,25.885
				c0.027,0.307,0.299,0.557,0.606,0.557h17.385c0.308,0,0.536-0.25,0.509-0.557l-2.265-25.885
				C354.452,196.124,354.18,195.874,353.872,195.874z"/>
			<path style="opacity:0.3;fill:#FFFFFF;" d="M356.743,222.317l-2.234-25.536l-16.048,25.942c0.107,0.092,0.243,0.151,0.388,0.151
				h17.385C356.542,222.874,356.77,222.624,356.743,222.317z"/>
			<path style="opacity:0.9;fill:#FFFFFF;" d="M351.135,209.374h-9.004c-0.574,0-1.081-0.465-1.131-1.04l-0.465-5.315
				c-0.05-0.574,0.375-1.04,0.949-1.04h9.004c0.574,0,1.081,0.466,1.131,1.04l0.465,5.315
				C352.135,208.908,351.71,209.374,351.135,209.374z"/>
			<path style="opacity:0.9;fill:#FFFFFF;" d="M351.945,218.624h-9.004c-0.574,0-1.081-0.465-1.131-1.04l-0.465-5.315
				c-0.05-0.574,0.375-1.04,0.949-1.04h9.004c0.574,0,1.081,0.466,1.131,1.04l0.465,5.315
				C352.944,218.158,352.519,218.624,351.945,218.624z"/>
			<g>
				<g>
					<path style="fill:#263238;" d="M342.285,204.115c-0.175,0-0.329-0.142-0.344-0.316c-0.015-0.175,0.114-0.316,0.289-0.316h7.232
						c0.175,0,0.329,0.142,0.344,0.316c0.015,0.175-0.114,0.316-0.289,0.316H342.285z"/>
					<path style="fill:#263238;" d="M342.485,206.397c-0.175,0-0.329-0.142-0.344-0.316c-0.015-0.175,0.114-0.316,0.289-0.316h6.004
						c0.175,0,0.329,0.142,0.344,0.316c0.015,0.175-0.114,0.316-0.289,0.316H342.485z"/>
					<path style="fill:#263238;" d="M342.385,205.256c-0.175,0-0.329-0.142-0.344-0.316c-0.015-0.175,0.114-0.316,0.289-0.316h4.776
						c0.175,0,0.329,0.142,0.344,0.316c0.015,0.175-0.114,0.316-0.289,0.316H342.385z"/>
				</g>
				<g style="opacity:0.5;">
					<path style="fill:#FFFFFF;" d="M342.285,204.115c-0.175,0-0.329-0.142-0.344-0.316c-0.015-0.175,0.114-0.316,0.289-0.316h7.232
						c0.175,0,0.329,0.142,0.344,0.316c0.015,0.175-0.114,0.316-0.289,0.316H342.285z"/>
					<path style="fill:#FFFFFF;" d="M342.485,206.397c-0.175,0-0.329-0.142-0.344-0.316c-0.015-0.175,0.114-0.316,0.289-0.316h6.004
						c0.175,0,0.329,0.142,0.344,0.316c0.015,0.175-0.114,0.316-0.289,0.316H342.485z"/>
					<path style="fill:#FFFFFF;" d="M342.385,205.256c-0.175,0-0.329-0.142-0.344-0.316c-0.015-0.175,0.114-0.316,0.289-0.316h4.776
						c0.175,0,0.329,0.142,0.344,0.316c0.015,0.175-0.114,0.316-0.289,0.316H342.385z"/>
				</g>
			</g>
			<g>
				<g>
					<path style="fill:#263238;" d="M343.106,213.498c-0.175,0-0.329-0.142-0.344-0.316c-0.015-0.175,0.114-0.316,0.289-0.316h7.232
						c0.175,0,0.329,0.142,0.344,0.316c0.015,0.175-0.114,0.316-0.289,0.316H343.106z"/>
					<path style="fill:#263238;" d="M343.206,214.639c-0.175,0-0.329-0.142-0.344-0.316c-0.015-0.175,0.114-0.316,0.289-0.316h4.776
						c0.175,0,0.329,0.142,0.344,0.316c0.015,0.175-0.114,0.316-0.289,0.316H343.206z"/>
				</g>
				<g style="opacity:0.5;">
					<path style="fill:#FFFFFF;" d="M343.106,213.498c-0.175,0-0.329-0.142-0.344-0.316c-0.015-0.175,0.114-0.316,0.289-0.316h7.232
						c0.175,0,0.329,0.142,0.344,0.316c0.015,0.175-0.114,0.316-0.289,0.316H343.106z"/>
					<path style="fill:#FFFFFF;" d="M343.206,214.639c-0.175,0-0.329-0.142-0.344-0.316c-0.015-0.175,0.114-0.316,0.289-0.316h4.776
						c0.175,0,0.329,0.142,0.344,0.316c0.015,0.175-0.114,0.316-0.289,0.316H343.206z"/>
				</g>
			</g>
		</g>
		<path style="fill:#263238;" d="M370.867,179.247c0.165-0.578-0.007-1.135-0.385-1.243c-0.378-0.108-0.818,0.273-0.984,0.852
			c-0.165,0.578,0.007,1.135,0.385,1.242C370.262,180.206,370.702,179.825,370.867,179.247z"/>
		<path style="fill:#DE5753;" d="M370.108,180.124l-4.416,2.831c0,0,0.876,1.6,3.05,1.794L370.108,180.124z"/>
		<path style="fill:#E4897B;" d="M390.646,185.529c-2.963,6.993-4.068,10.023-8.974,12.417c-6.837,1.787-15.336-1.568-14.518-9.311
			c0.732-6.967,5.444-17.208,13.467-17.62c5.719-0.291,10.591,4.109,10.882,9.828C391.585,182.451,391.292,184.055,390.646,185.529z
			"/>
		<path style="fill:#263238;" d="M372.27,178.174c-0.112-0.035-0.201-0.121-0.24-0.232c-0.236-0.865-0.876-1.563-1.717-1.873
			c-0.183-0.055-0.289-0.247-0.237-0.432c0.056-0.185,0.248-0.294,0.435-0.245c1.068,0.377,1.887,1.248,2.196,2.338
			c0.066,0.178-0.025,0.375-0.202,0.441c-0.006,0.002-0.011,0.004-0.017,0.006C372.418,178.202,372.34,178.202,372.27,178.174z"/>
		<path style="opacity:0.2;" d="M374.349,194.659c0,0-5.086,1.034-7.096-3.408c0.683,3.564,3.647,5.837,7.216,6.728l1.225-0.855
			l-0.663-1.809L374.349,194.659z"/>
		<path style="fill:#E4897B;" d="M383.594,206.262c0,0-4.395-2.152-1.227-10.531c0,0-3.509-3.481-7.157-2.004
			c-3.648,1.477-0.586,9.195-4.88,10.385C370.33,204.111,372.572,207.215,383.594,206.262z"/>
		<path style="fill:#263238;" d="M370.681,178.124c0,0-0.633-0.109-1.07-0.818c0,0,0.066,0.792,0.908,1.094L370.681,178.124z"/>
		<g>
			<path style="fill:#407BFF;" d="M368.236,204.456c0,0,2.625-4.087,9.688-3.275s5.671,5.08,5.671,5.08L368.236,204.456z"/>
			<path style="opacity:0.3;fill:#FFFFFF;" d="M368.236,204.456c0,0,2.625-4.087,9.688-3.275s5.671,5.08,5.671,5.08L368.236,204.456
				z"/>
		</g>
		<path style="fill:#263238;" d="M373.925,183.629c0,0,0.023-2.77,2.045-5.776c2.022-3.005,0.878-4.949,0.992-6.852
			c0.114-1.903,9.864-3.82,13.614,2.68c0,0,6.75,5.833,2,12.833s-6.667,12.345-12.417,11.464
			C374.409,197.098,377.675,187.588,373.925,183.629z"/>
		<path style="opacity:0.4;" d="M390.576,173.682c-1.711-2.966-4.669-4.169-7.393-4.43c-1.49,3.322,2.448,7.002,2.448,7.002
			s-5.784,1.426-4.862,6.162c0.922,4.737,7.657,2.244,7.657,2.244s-4.248,4.117-1.135,6.553c0.681,0.533,1.333,0.635,1.941,0.495
			c0.997-1.554,2.068-3.31,3.345-5.193C397.326,179.515,390.576,173.682,390.576,173.682z"/>
		<path style="fill:#407BFF;" d="M390.576,173.682c-0.427-0.74-0.94-1.359-1.5-1.893c-2.637,1.354-4.445,4.095-4.445,7.263
			c0,6.735,5.968,8.009,7.499,8.133c0.148-0.223,0.291-0.443,0.445-0.67C397.326,179.515,390.576,173.682,390.576,173.682z"/>
		<path style="fill:#E4897B;" d="M374.412,181.431c-1.263,0.901-2.116,2.268-2.369,3.799c-0.32,2.033,1.561,2.829,3.357,2.081
			c1.627-0.677,3.734-2.551,3.233-4.509C378.132,180.844,375.97,180.347,374.412,181.431z"/>
		<path style="fill:#263238;" d="M388.085,176.788c0,0-5.183-5.764-0.842-9.106c3.5-2.695,6.196,4.125,6.196,4.125
			s-0.571-7.625,4.804-6.75c5.424,0.883,2.125,7.5,2.125,7.5s4.75-3,6.75,0.25s-3.822,5.389-3.822,5.389s6.572,3.874,3.447,6.555
			c-3.125,2.681-6.125-0.522-6.125-0.522s1.875,5.203-1.625,6.023c-3.169,0.742-4.125-4.07-4.125-4.07s-2.375,5.75-5.25,3.5
			s0.125-6.053,0.125-6.053s-5.297,2.303-6.149-2.072C382.743,177.182,388.085,176.788,388.085,176.788z"/>
		<path style="fill:#E4897B;" d="M397.119,222.767c0,0,9.51,20.438,4.929,22.289c-4.58,1.852-18.552,5.001-18.552,5.001
			l-6.724,2.432l-3.898-2.534l0.989-6.555l9.841,2.148l11.804-5.288l-5.576-12.42L397.119,222.767z"/>
		<path style="fill:#407BFF;" d="M392.581,211.798c0.315-0.354,0.898-0.252,1.086,0.184c2.181,5.047,12.429,29.294,9.569,32.825
			c-2.127,2.625-12.414,4-12.414,4l-2.189-5.875l6.238-2.875l-7.019-15.995C387.852,224.061,387.108,217.943,392.581,211.798z"/>
		<path style="opacity:0.2;" d="M387.852,224.061l3.742,8.529c3.1-18.439,0.987-20.792,0.987-20.792
			C387.108,217.943,387.852,224.061,387.852,224.061z"/>
		<polygon style="fill:#E4897B;" points="389.307,386.849 394.67,405.079 400.113,404.763 398.96,384.972 		"/>
		<path style="fill:#263238;" d="M361.094,251.873c0,0-6.616,13.302-0.256,37.76c6.361,24.458,31.81,109.667,31.81,109.667
			l7.167-0.861c0,0,0.451-30.576-9.631-55.25c0,0-4.838-41.948-2.482-51.809c1.647-6.894,2.65-12.655-0.194-23.095
			c-1.606-5.899-3.158-10.134-4.592-12.989c-1.872-3.729-1.319-5.163-1.319-5.163L361.094,251.873z"/>
		<path style="opacity:0.5;" d="M392.649,399.3l7.167-0.861c0,0,0.016-1.182-0.031-3.247l-8.036,1.091
			C392.327,398.221,392.649,399.3,392.649,399.3z"/>
		<path style="opacity:0.4;" d="M369.561,320.803c9.195-25.555,6.664-44.096,6.664-44.096l-5.75-0.75l-4.5,8l-3.136,13.109
			C364.62,303.539,366.965,311.792,369.561,320.803z"/>
		<path style="fill:#263238;" d="M394.53,404.555l6.469-0.903c0.281-0.034,0.549,0.131,0.644,0.398l3.085,5.913
			c0.189,0.523-0.082,1.1-0.605,1.289c-0.067,0.024-0.137,0.041-0.207,0.051c-2.698,0.279-5.11,0.421-8.461,0.831
			c-3.956,0.48-2.895,0.831-7.537,1.46c-2.798,0.376-3.696-2.747-2.527-3.047c5.355-1.342,5.721-3.053,7.583-5.253
			C393.384,404.866,393.938,404.603,394.53,404.555z"/>
		<polygon style="fill:#263238;" points="391.073,397.975 401.007,396.728 400.854,399.688 392.092,400.772 		"/>
		<polygon style="fill:#E4897B;" points="361.841,388.082 364.184,406.248 369.684,406.248 371.1,388.415 		"/>
		<path style="fill:#263238;" d="M352.346,249.832c0,0-0.081,1.579-1.332,4.764c-2.235,5.69-6.012,16.504-4.141,32.598
			c2.919,25.103,16.346,113.011,16.346,113.011h7.227c0,0,4.95-29.873-0.892-56.189c0,0-2.071-37.045,1.013-46.703
			c2.147-6.724,8.22-13.232,6.663-27.438c-1.557-14.205-5.326-19.07-5.326-19.07L352.346,249.832z"/>
		<path style="opacity:0.5;" d="M362.721,396.938c0.319,2.094,0.498,3.268,0.498,3.268h7.227c0,0,0.195-1.186,0.461-3.268H362.721z"
			/>
		<path style="fill:#263238;" d="M364.063,405.68l6.435,0.136c0.28,0.005,0.52,0.204,0.576,0.478l1.233,6.073
			c0.113,0.538-0.231,1.066-0.769,1.179c-0.069,0.014-0.139,0.022-0.21,0.021c-2.679-0.095-5.06-0.286-8.397-0.342
			c-3.938-0.071-2.947,0.418-7.578,0.4c-2.79-0.014-3.243-3.194-2.057-3.329c5.426-0.582,7.018-2.207,9.141-4.106
			C362.899,405.827,363.477,405.645,364.063,405.68z"/>
		<polygon style="fill:#263238;" points="361.841,398.675 371.862,398.675 371.302,401.586 362.464,401.586 		"/>
		<path style="fill:#407BFF;" d="M387.736,262.431c-10.254-14.125,7.625-45.5,5.531-51.368c-2.094-5.868-34.656-15.632-38.934,1.001
			c-4.278,16.632-2.007,28.015-2.65,35.243c-0.947,10.625-5.322,14.875-5.322,14.875S368.986,270.681,387.736,262.431z"/>
		<path style="opacity:0.2;" d="M352.066,224.983c-0.549,5.709-0.442,10.572-0.337,14.653c12.112-14.041,9.431-27.329,9.431-27.329
			l-0.985,0.625l-4.375,3.625C355.8,216.557,354.064,220.285,352.066,224.983z"/>
		<path style="fill:#E4897B;" d="M333.18,222.884c0,0,3.392,17.695,7.262,20.766c3.87,3.07,17.246-18.81,17.246-18.81l-6.611-3.954
			l-9.168,12.327l-5.413-12.689l1.073-6.769l-1.764-4.149c-0.581-1.037-2.095-0.972-2.585,0.112l-2,4.428
			c-0.418,0.926-0.461,1.978-0.118,2.935L333.18,222.884z"/>
		<path style="fill:#407BFF;" d="M341.902,232.089l-3.167-7.667l-4.224,6.254c0,0,2.099,14.927,7.474,13.537
			c5.133-1.328,16.738-18.789,19.25-25.522c2.512-6.733-0.887-13.294-0.887-13.294s-4.113-1.067-9.401,11.339
			C346.402,227.398,341.902,232.089,341.902,232.089z"/>
	</g>
</g>
<g id="Character_1">
	<g>
		<path style="fill:#263238;" d="M124.601,198.18c-1.138-0.961-2.878-0.615-3.601,0.687c-4.06,7.314-15.721,29.413-12.007,35.563
			c4.472,7.406,25.709,6.812,25.709,6.812l1.025-6.283l-13.629-7.053c0,0,4.2-8.378,5.478-11.227
			C129.544,212.298,132.472,204.826,124.601,198.18z"/>
		<path style="opacity:0.4;" d="M122.099,227.906c0,0,4.199-8.378,5.479-11.227c1.42-3.165,3.341-7.944,1.331-12.858l-3.479-3.692
			l-3.331,1.054c0,0-6.752,32.548,0.022,39.225c2.319,0.364,4.61,0.576,6.589,0.695c2.38-1.381,4.116-4.365,5.265-7.051
			L122.099,227.906z"/>
		<path style="fill:#263238;" d="M144.554,167.385c-0.188-0.66,0.008-1.294,0.439-1.418c0.431-0.123,0.933,0.312,1.122,0.971
			c0.188,0.66-0.008,1.294-0.44,1.417C145.245,168.479,144.743,168.044,144.554,167.385z"/>
		<path style="fill:#A24E3F;" d="M145.421,168.386l5.037,3.23c0,0-1,1.825-3.48,2.047L145.421,168.386z"/>
		<path style="fill:#B97964;" d="M121.991,174.552c3.38,7.978,4.641,11.435,10.237,14.165c7.799,2.039,17.495-1.789,16.563-10.622
			c-0.835-7.949-6.21-19.632-15.363-20.102c-6.524-0.332-12.083,4.688-12.415,11.212C120.919,171.04,121.254,172.87,121.991,174.552
			z"/>
		<path style="fill:#263238;" d="M142.954,166.161c0.128-0.04,0.23-0.138,0.273-0.265c0.27-0.987,0.999-1.783,1.959-2.137
			c0.209-0.063,0.329-0.282,0.271-0.492c-0.064-0.211-0.283-0.335-0.497-0.279c-1.218,0.43-2.152,1.424-2.506,2.667
			c-0.075,0.202,0.028,0.428,0.231,0.503c0.006,0.002,0.013,0.005,0.019,0.007C142.785,166.193,142.874,166.192,142.954,166.161z"/>
		<path style="opacity:0.2;" d="M140.583,184.967c0,0,5.802,1.18,8.095-3.887c-0.779,4.066-4.161,6.659-8.232,7.675l-1.398-0.976
			l0.756-2.064L140.583,184.967z"/>
		<path style="fill:#B97964;" d="M129.344,199.897c0,0,5.598-2.741,1.563-13.413c0,0,4.469-4.434,9.116-2.553
			c4.646,1.881,0.746,11.711,6.215,13.226C146.237,197.158,143.382,201.111,129.344,199.897z"/>
		<g>
			<path style="fill:#263238;" d="M130.403,194.522c0,0-1.013-3.633,5.202-5.156c6.214-1.523,11.381,0.347,12.209,3.07
				C148.642,195.16,130.403,194.522,130.403,194.522z"/>
			<path style="opacity:0.2;fill:#FFFFFF;" d="M130.403,194.522c0,0-1.013-3.633,5.202-5.156c6.214-1.523,11.381,0.347,12.209,3.07
				C148.642,195.16,130.403,194.522,130.403,194.522z"/>
		</g>
		<path style="fill:#263238;" d="M142.956,172.591c0,0,2.04-1.694,0-3.567c-2.04-1.873-5.023-3.468-4.145-6.05
			c0.878-2.582-3.117-4.367-3.117-4.367s3.91-2.55,1.615-4.59c-2.361-2.099-3.334,1.785-8.841,3.961
			c-6.341,2.506-13.431,8.535-9.096,16.44c4.335,7.906,8.161,14.536,13.346,13.261c5.185-1.275,7.651-11.306,7.651-11.306
			L142.956,172.591z"/>
		<path style="fill:#B97964;" d="M141.53,169.876c1.441,1.028,2.414,2.587,2.703,4.334c0.366,2.32-1.781,3.228-3.829,2.374
			c-1.856-0.772-4.26-2.91-3.689-5.144C137.286,169.207,139.754,168.64,141.53,169.876z"/>
		<polygon style="fill:#B97964;" points="153.731,392.466 155.698,405.805 163.723,405.511 164.326,391.706 		"/>
		<path style="fill:#263238;" d="M163.28,404.56l-7.909,0.167c-0.344,0.006-0.639,0.25-0.708,0.588l-1.516,7.464
			c-0.139,0.661,0.284,1.31,0.945,1.449c0.085,0.018,0.172,0.027,0.258,0.026c3.293-0.117,6.219-0.351,10.32-0.421
			c4.84-0.087,3.622,0.514,9.313,0.492c3.429-0.017,3.985-3.926,2.528-4.091c-6.668-0.716-8.625-2.712-11.234-5.047
			C164.711,404.741,164,404.518,163.28,404.56z"/>
		<polygon style="fill:#B97964;" points="114.612,392.466 114.092,404.287 122.423,405.378 125.206,391.706 		"/>
		<path style="fill:#263238;" d="M121.939,403.238l-7.895-0.496c-0.344-0.023-0.657,0.196-0.755,0.526l-2.136,7.311
			c-0.194,0.647,0.173,1.329,0.82,1.523c0.083,0.025,0.169,0.041,0.255,0.048c3.291,0.159,6.226,0.171,10.319,0.445
			c4.83,0.319,3.566,0.816,9.239,1.27c3.418,0.27,4.3-3.578,2.862-3.865c-6.585-1.272-8.367-3.425-10.772-5.97
			C123.35,403.539,122.66,403.256,121.939,403.238z"/>
		<polygon style="fill:#B97964;" points="133.712,235.286 138.616,236.465 146.918,234.367 148.259,238.033 149.291,243.172 
			142.688,244.301 137.263,241.031 130.342,240.891 		"/>
		<path style="fill:#263238;" d="M121.979,199.516l4.051,56.934l43.523,0.34c0,0,5.31-15.724-1.252-37.998l-6.41-21.486
			c-0.539-1.808-1.987-3.199-3.819-3.651c-6.453-1.592-22.142-3.496-34.385,2.827C122.564,197.061,121.89,198.254,121.979,199.516z"
			/>
		<path style="fill:#407BFF;" d="M125.051,256.898c-2.438,11.285-3.077,19.191-3.043,24.472c0.012,1.868,0.108,3.408,0.238,4.652
			c0.392,3.743,0.529,7.511,0.296,11.269l-0.06,0.967c-0.671,10.837-0.787,21.91-0.769,29.209c0,0.051,0,0.103,0,0.154
			c0.013,4.791-0.737,9.54-2.225,14.067c-0.232,0.706-0.455,1.428-0.67,2.167c-6.149,21.091-5.623,54.755-5.623,54.755l11.932,0.672
			l32.837-144.446l-30.474,0C126.319,254.835,125.312,255.694,125.051,256.898z"/>
		<path style="opacity:0.2;" d="M142.891,278.782l-4.087-0.941l-2.524-3.059c0,0,0.256,22.867,6.885,45.147l6.461-28.421
			L142.891,278.782z"/>
		<g>
			<polygon style="fill:#407BFF;" points="112.139,396.288 112.314,399.802 125.895,400.359 126.498,396.793 			"/>
		</g>
		<polygon style="opacity:0.3;" points="112.139,396.288 112.314,399.802 125.895,400.359 126.498,396.793 		"/>
		<path style="fill:#407BFF;" d="M137.038,254.834c-2.785,16.696-1.07,26.215,0.782,31.193c0.181,0.487,0.363,0.93,0.543,1.332
			c1.347,3.016,2.301,6.205,2.731,9.508c0.02,0.156,0.041,0.312,0.062,0.469c1.721,12.952,5.018,26.542,6.998,34.068
			c0.01,0.037,0.019,0.073,0.029,0.11c0.871,3.306,1.127,6.76,0.659,10.155c-0.153,1.109-0.27,2.298-0.355,3.554
			c-1.315,19.44,5.076,54.877,5.076,54.877l11.679-1.076l5.105-142.505c0.033-0.92-0.666-1.685-1.539-1.685H137.038z"/>
		<g>
			<polygon style="fill:#407BFF;" points="152.053,398.311 153.051,401.741 166.174,400.602 166.366,396.984 			"/>
			<polygon style="opacity:0.3;" points="152.053,398.311 153.051,401.741 166.174,400.602 166.366,396.984 			"/>
		</g>
		<g style="opacity:0.7;">
			<rect x="137.274" y="257.258" style="fill:#FFFFFF;" width="22.048" height="3.06"/>
			<polygon style="fill:#FFFFFF;" points="134.359,257.258 125.89,257.258 125.429,260.318 134.359,260.318 			"/>
			<rect x="162.298" y="257.258" style="fill:#FFFFFF;" width="6.718" height="3.06"/>
		</g>
		<path style="opacity:0.4;" d="M168.301,218.792l-3.461-11.602l-2.368-3.303l-3.06-2.352l-1.448,3.57
			c0,0,0.893,11.223,11.765,19.244C169.331,222.547,168.862,220.695,168.301,218.792z"/>
		<path style="fill:#B97964;" d="M189.063,199.495l2.107-4.583l-0.374-7.129c-0.048-0.912,0.259-1.808,0.856-2.499l1.218-1.411
			c1.418-1.641,3.965-1.633,5.372,0.017l0.698,0.818c0.566,0.665,0.867,1.515,0.845,2.388l-0.104,4.025
			c-0.022,0.848-0.348,1.66-0.918,2.288l-3.375,3.715l-1.479,6.762L189.063,199.495z"/>
		<path style="fill:#263238;" d="M161.691,194.731l20.536,16.532l7.177-13.888l6.162,2.579c0,0-4.388,24.658-10.004,25.053
			c-5.616,0.395-19.668-6.257-25.454-14.163c-4.207-5.749-2.296-12.33-0.94-15.493C159.594,194.357,160.849,194.053,161.691,194.731
			z"/>
	</g>
</g>
</svg>
