<?xml version="1.0" encoding="utf-8"?>
<!-- Generator: Adobe Illustrator 27.5.0, SVG Export Plug-In . SVG Version: 6.00 Build 0)  -->
<svg version="1.1" xmlns="http://www.w3.org/2000/svg" xmlns:xlink="http://www.w3.org/1999/xlink" x="0px" y="0px"
	 viewBox="0 0 500 500" style="enable-background:new 0 0 500 500;" xml:space="preserve">
<g id="Background_Complete">
	<g>
		<rect y="382.398" style="fill:#EBEBEB;" width="500" height="0.25"/>
		<rect x="393.106" y="398.619" style="fill:#EBEBEB;" width="16.561" height="0.25"/>
		<rect x="329.194" y="394.986" style="fill:#EBEBEB;" width="37.806" height="0.25"/>
		<rect x="265" y="389.208" style="fill:#EBEBEB;" width="69.081" height="0.25"/>
		<rect x="52.459" y="390.888" style="fill:#EBEBEB;" width="12.693" height="0.25"/>
		<rect x="74.056" y="390.888" style="fill:#EBEBEB;" width="36.833" height="0.25"/>
		<rect x="152.333" y="395.111" style="fill:#EBEBEB;" width="59.529" height="0.25"/>
		<path style="fill:#EBEBEB;" d="M237.014,337.8H43.915c-3.147,0-5.708-2.561-5.708-5.708V60.66c0-3.147,2.561-5.708,5.708-5.708
			h193.099c3.146,0,5.707,2.561,5.707,5.708v271.432C242.721,335.239,240.16,337.8,237.014,337.8z M43.915,55.203
			c-3.01,0-5.458,2.448-5.458,5.458v271.432c0,3.01,2.448,5.458,5.458,5.458h193.099c3.009,0,5.457-2.448,5.457-5.458V60.66
			c0-3.009-2.448-5.458-5.457-5.458H43.915z"/>
		<path style="fill:#EBEBEB;" d="M453.31,337.8H260.212c-3.147,0-5.707-2.561-5.707-5.708V60.66c0-3.147,2.561-5.708,5.707-5.708
			H453.31c3.148,0,5.708,2.561,5.708,5.708v271.432C459.019,335.239,456.458,337.8,453.31,337.8z M260.212,55.203
			c-3.009,0-5.457,2.448-5.457,5.458v271.432c0,3.01,2.448,5.458,5.457,5.458H453.31c3.01,0,5.458-2.448,5.458-5.458V60.66
			c0-3.009-2.448-5.458-5.458-5.458H260.212z"/>
	</g>
	<g>
		<g>
			<g>
				<path style="fill:#F0F0F0;" d="M116.271,243.56c0,0-0.687,16.145-27,16.145c-26.314,0-27-16.145-27-16.145H116.271z"/>
			</g>
			<g>
				<path style="fill:#F0F0F0;" d="M116.271,231.243c0,0-0.687,16.145-27,16.145c-26.314,0-27-16.145-27-16.145H116.271z"/>
			</g>
			<g>
				<g>
					<rect x="53.022" y="263.981" style="fill:#F0F0F0;" width="20.746" height="109.561"/>
					<rect x="60.593" y="373.543" style="fill:#F0F0F0;" width="175.775" height="8.856"/>
					
						<rect x="73.768" y="263.981" transform="matrix(-1 -1.224647e-16 1.224647e-16 -1 317.7076 637.524)" style="fill:#F5F5F5;" width="170.172" height="109.561"/>
					
						<rect x="89.271" y="275.586" transform="matrix(-1 -1.224647e-16 1.224647e-16 -1 317.7076 587.6095)" style="fill:#F0F0F0;" width="139.166" height="36.438"/>
					
						<rect x="89.271" y="320.384" transform="matrix(-1 -1.224647e-16 1.224647e-16 -1 317.7076 677.2065)" style="fill:#F0F0F0;" width="139.166" height="36.438"/>
					<path style="fill:#F5F5F5;" d="M175.18,280.609h-32.652c-1.729,0-3.143-1.414-3.143-3.143l0,0c0-1.729,1.414-3.143,3.143-3.143
						h32.652c1.729,0,3.143,1.414,3.143,3.143l0,0C178.323,279.195,176.908,280.609,175.18,280.609z"/>
					<path style="fill:#F5F5F5;" d="M175.18,325.408h-32.652c-1.729,0-3.143-1.414-3.143-3.143l0,0c0-1.729,1.414-3.143,3.143-3.143
						h32.652c1.729,0,3.143,1.414,3.143,3.143l0,0C178.323,323.993,176.908,325.408,175.18,325.408z"/>
				</g>
				<rect x="73.768" y="259.705" style="fill:#F0F0F0;" width="175.426" height="4.277"/>
				
					<rect x="47.511" y="259.705" transform="matrix(-1 -1.224647e-16 1.224647e-16 -1 121.2792 523.6863)" style="fill:#E6E6E6;" width="26.257" height="4.277"/>
			</g>
		</g>
		<g>
			<g>
				<rect x="282.646" y="93.394" style="fill:#E6E6E6;" width="151.152" height="136.421"/>
				<rect x="285.249" y="93.394" style="fill:#F5F5F5;" width="156.344" height="136.421"/>
				<rect x="294.226" y="102.377" style="fill:#FFFFFF;" width="138.385" height="118.46"/>
			</g>
		</g>
		<g>
			<rect x="413.621" y="272.111" style="fill:#E6E6E6;" width="11.482" height="110.286"/>
			<rect x="421.413" y="272.111" style="fill:#F0F0F0;" width="6.763" height="110.286"/>
			<rect x="364.757" y="272.111" style="fill:#E6E6E6;" width="11.482" height="110.286"/>
			<rect x="371.629" y="272.111" style="fill:#F0F0F0;" width="6.763" height="110.286"/>
			
				<rect x="329.299" y="272.111" transform="matrix(-1 -1.224647e-16 1.224647e-16 -1 759.57 565.5699)" style="fill:#F0F0F0;" width="100.972" height="21.348"/>
			<rect x="267.975" y="272.111" style="fill:#E6E6E6;" width="11.482" height="110.286"/>
			<rect x="274.846" y="272.111" style="fill:#F0F0F0;" width="6.763" height="110.286"/>
			
				<rect x="265.923" y="272.111" transform="matrix(-1 -1.224647e-16 1.224647e-16 -1 590.3086 565.5699)" style="fill:#E6E6E6;" width="58.463" height="21.348"/>
			<rect x="316.839" y="272.111" style="fill:#E6E6E6;" width="11.482" height="110.286"/>
			<rect x="324.631" y="272.111" style="fill:#F0F0F0;" width="6.763" height="110.286"/>
		</g>
	</g>
</g>
<g id="Background_Simple" style="display:none;">
	<g style="display:inline;">
		<path style="fill:#407BFF;" d="M299.118,326.517c-28.402,19.406-48.516,51.943-89.046,44.583
			c-31.395-5.701-53.047-35.627-56.943-65.908c-9.552-74.231,74.298-142.445,138.288-157.655
			c62.962-14.966,148.804,43.668,137.801,115.403c-4.364,28.454-28.771,57.749-59.162,58.263
			C342.121,321.677,326.398,307.877,299.118,326.517z"/>
		<path style="opacity:0.9;fill:#FFFFFF;" d="M299.118,326.517c-28.402,19.406-48.516,51.943-89.046,44.583
			c-31.395-5.701-53.047-35.627-56.943-65.908c-9.552-74.231,74.298-142.445,138.288-157.655
			c62.962-14.966,148.804,43.668,137.801,115.403c-4.364,28.454-28.771,57.749-59.162,58.263
			C342.121,321.677,326.398,307.877,299.118,326.517z"/>
	</g>
</g>
<g id="Shadow_1_">
	<ellipse id="_x3C_Path_x3E__295_" style="fill:#F5F5F5;" cx="250" cy="416.238" rx="193.889" ry="11.323"/>
</g>
<g id="Setup_wizard">
	<g>
		<g>
			<path style="fill:#263238;" d="M85.476,292.521L73.173,78.456c-0.246-4.276,3.021-7.742,7.297-7.742h244.133
				c4.276,0,7.941,3.466,8.187,7.742l12.304,214.065c0.246,4.276-3.021,7.742-7.297,7.742H93.663
				C89.387,300.263,85.722,296.797,85.476,292.521z"/>
			<path style="fill:#263238;" d="M337.796,300.737H93.663c-4.516,0-8.401-3.674-8.661-8.189L72.698,78.483
				c-0.126-2.202,0.615-4.273,2.087-5.832c1.469-1.556,3.488-2.412,5.685-2.412h244.133c4.516,0,8.401,3.674,8.661,8.189
				l12.304,214.064c0.126,2.202-0.615,4.273-2.086,5.832C342.013,299.881,339.994,300.737,337.796,300.737z M85.95,292.493
				c0.231,4.022,3.691,7.295,7.713,7.295h244.133c1.934,0,3.708-0.751,4.995-2.114c1.291-1.367,1.94-3.188,1.829-5.126
				L332.316,78.483c-0.231-4.022-3.691-7.295-7.713-7.295H80.47c-1.934,0-3.707,0.751-4.995,2.114
				c-1.29,1.367-1.94,3.188-1.829,5.126L85.95,292.493z"/>
		</g>
		<g>
			<path style="fill:#FFFFFF;" d="M88.466,292.521L76.163,78.456c-0.246-4.276,3.021-7.742,7.297-7.742h244.133
				c4.276,0,7.941,3.466,8.187,7.742l12.304,214.065c0.246,4.276-3.021,7.742-7.297,7.742H96.653
				C92.378,300.263,88.712,296.797,88.466,292.521z"/>
			<path style="fill:#263238;" d="M340.787,300.737H96.653c-4.516,0-8.401-3.674-8.661-8.189L75.688,78.483
				c-0.127-2.202,0.615-4.273,2.086-5.832c1.469-1.556,3.487-2.412,5.685-2.412h244.134c4.516,0,8.401,3.674,8.661,8.189
				l12.304,214.064c0.126,2.202-0.615,4.273-2.086,5.832C345.003,299.881,342.984,300.737,340.787,300.737z M83.46,71.188
				c-1.933,0-3.707,0.751-4.994,2.114c-1.291,1.367-1.94,3.188-1.829,5.126L88.94,292.493c0.231,4.022,3.691,7.295,7.713,7.295
				h244.133c1.934,0,3.708-0.751,4.995-2.114c1.291-1.367,1.94-3.188,1.829-5.126L335.306,78.483
				c-0.232-4.022-3.692-7.295-7.713-7.295H83.46z"/>
		</g>
		<g>
			<path style="fill:#407BFF;" d="M170.534,101.627h-68.226c-2.526,0-4.712-2.067-4.857-4.594l0,0
				c-0.145-2.526,1.803-4.593,4.329-4.593h68.226c2.526,0,4.712,2.067,4.857,4.593l0,0
				C175.009,99.559,173.06,101.627,170.534,101.627z"/>
		</g>
		<g>
			<path style="fill:#407BFF;" d="M157.992,117.542h-54.769c-2.526,0-4.712-2.067-4.857-4.594l0,0
				c-0.145-2.526,1.803-4.593,4.329-4.593h54.769c2.526,0,4.712,2.067,4.857,4.593l0,0
				C162.467,115.475,160.519,117.542,157.992,117.542z"/>
		</g>
		<g>
			<path style="fill:#E0E0E0;" d="M184.79,138.078h-82.014c-1.638,0-3.043-1.328-3.137-2.967l0,0
				c-0.094-1.638,1.158-2.967,2.796-2.967h82.014c1.638,0,3.043,1.328,3.137,2.967l0,0
				C187.68,136.75,186.428,138.078,184.79,138.078z"/>
		</g>
		<g>
			<path style="fill:#E0E0E0;" d="M199.582,147.538h-87.234c-1.638,0-3.043-1.328-3.137-2.967l0,0
				c-0.094-1.638,1.158-2.967,2.796-2.967h87.234c1.639,0,3.043,1.328,3.137,2.967l0,0
				C202.472,146.21,201.221,147.538,199.582,147.538z"/>
		</g>
		<g>
			<path style="fill:#E0E0E0;" d="M184.154,156.999h-71.262c-1.638,0-3.043-1.328-3.137-2.967l0,0
				c-0.094-1.638,1.158-2.967,2.796-2.967h71.262c1.638,0,3.043,1.328,3.137,2.967l0,0
				C187.044,155.671,185.792,156.999,184.154,156.999z"/>
		</g>
		<g>
			<path style="fill:#E0E0E0;" d="M176.651,166.46h-63.215c-1.638,0-3.043-1.328-3.137-2.967l0,0
				c-0.094-1.638,1.158-2.967,2.796-2.967h63.215c1.638,0,3.043,1.328,3.137,2.967l0,0
				C179.541,165.131,178.289,166.46,176.651,166.46z"/>
		</g>
		<g>
			<path style="fill:#E0E0E0;" d="M156.5,181.853h-51.208c-1.638,0-3.043-1.328-3.137-2.967l0,0
				c-0.094-1.639,1.158-2.967,2.796-2.967h51.208c1.638,0,3.043,1.328,3.137,2.967l0,0
				C159.391,180.525,158.139,181.853,156.5,181.853z"/>
		</g>
		<g>
			<path style="fill:#E0E0E0;" d="M171.023,204.302h-55.412c-1.638,0-2.89,1.328-2.796,2.967l0,0
				c0.094,1.639,1.499,2.967,3.137,2.967h55.412c1.638,0,2.89-1.328,2.796-2.967l0,0
				C174.066,205.63,172.661,204.302,171.023,204.302z"/>
		</g>
		<g>
			<path style="fill:#E0E0E0;" d="M159.962,194.841h-44.895c-1.638,0-2.89,1.328-2.796,2.967l0,0
				c0.094,1.638,1.499,2.967,3.137,2.967h44.895c1.638,0,2.89-1.328,2.796-2.967l0,0
				C163.005,196.169,161.601,194.841,159.962,194.841z"/>
		</g>
		<g>
			<path style="fill:#E0E0E0;" d="M164.571,185.381h-50.047c-1.638,0-2.89,1.328-2.796,2.967l0,0
				c0.094,1.639,1.499,2.967,3.137,2.967h50.047c1.638,0,2.89-1.328,2.796-2.967l0,0
				C167.614,186.709,166.209,185.381,164.571,185.381z"/>
		</g>
		<g>
			<path style="fill:#E0E0E0;" d="M160.648,254.01H109.44c-1.638,0-3.043-1.328-3.137-2.967l0,0
				c-0.094-1.638,1.158-2.967,2.796-2.967h51.208c1.639,0,3.043,1.328,3.137,2.967l0,0
				C163.538,252.682,162.286,254.01,160.648,254.01z"/>
		</g>
		<g>
			<path style="fill:#E0E0E0;" d="M175.17,276.459h-55.412c-1.638,0-2.89,1.328-2.796,2.967l0,0
				c0.094,1.638,1.499,2.967,3.137,2.967h55.412c1.638,0,2.89-1.328,2.796-2.967l0,0
				C178.213,277.787,176.809,276.459,175.17,276.459z"/>
		</g>
		<g>
			<path style="fill:#E0E0E0;" d="M164.11,266.998h-44.895c-1.638,0-2.89,1.328-2.796,2.967l0,0
				c0.094,1.638,1.499,2.967,3.137,2.967h44.895c1.638,0,2.89-1.328,2.796-2.967l0,0
				C167.153,268.327,165.748,266.998,164.11,266.998z"/>
		</g>
		<g>
			<path style="fill:#E0E0E0;" d="M168.718,257.538h-50.047c-1.638,0-2.89,1.328-2.796,2.967l0,0
				c0.094,1.638,1.499,2.967,3.137,2.967h50.047c1.638,0,2.89-1.328,2.796-2.967l0,0
				C171.761,258.866,170.356,257.538,168.718,257.538z"/>
		</g>
		<g>
			<path style="fill:#E0E0E0;" d="M172.654,232.683h-55.412c-1.638,0-2.89,1.328-2.796,2.967l0,0
				c0.094,1.638,1.499,2.967,3.137,2.967h55.412c1.639,0,2.89-1.328,2.796-2.967l0,0
				C175.697,234.012,174.292,232.683,172.654,232.683z"/>
		</g>
		<g>
			<path style="fill:#E0E0E0;" d="M161.594,223.223h-44.895c-1.638,0-2.89,1.328-2.796,2.967l0,0
				c0.094,1.638,1.499,2.967,3.137,2.967h44.895c1.638,0,2.89-1.328,2.796-2.967l0,0
				C164.637,224.551,163.232,223.223,161.594,223.223z"/>
		</g>
		<g>
			<path style="fill:#E0E0E0;" d="M166.202,213.762h-50.047c-1.639,0-2.89,1.328-2.796,2.967l0,0
				c0.094,1.638,1.499,2.967,3.137,2.967h50.047c1.638,0,2.89-1.328,2.796-2.967l0,0C169.245,215.09,167.84,213.762,166.202,213.762
				z"/>
		</g>
		<g>
			<g>
				<g>
					<path style="fill:#407BFF;" d="M260.062,136.1h-24.733c-13.66,0-25.369-11.073-26.154-24.733l0,0
						c-0.785-13.66,9.652-24.733,23.311-24.733l0,0c13.66,0,25.369,11.073,26.154,24.733L260.062,136.1z"/>
				</g>
				<g>
					<path style="fill:#FFFFFF;" d="M235.083,131.816L235.083,131.816c-11.293,0-20.975-9.155-21.624-20.449l0,0
						c-0.649-11.293,7.98-20.449,19.273-20.449h0c11.293,0,20.975,9.155,21.624,20.449l0,0
						C255.005,122.66,246.376,131.816,235.083,131.816z"/>
				</g>
				<path style="fill:#263238;" d="M236.344,103.087l0.952,16.559h-4.576l-0.624-10.851c-0.708,0.563-1.398,1.018-2.07,1.366
					s-1.521,0.681-2.547,0.999l-0.213-3.709c1.512-0.496,2.673-1.092,3.485-1.788c0.811-0.696,1.428-1.555,1.851-2.577H236.344z"/>
			</g>
			<g>
				<g>
					<path style="fill:#407BFF;" d="M275.326,185.566h24.733c13.66,0,24.096-11.073,23.311-24.733l0,0
						c-0.785-13.66-12.495-24.733-26.154-24.733h0c-13.66,0-24.096,11.073-23.311,24.733L275.326,185.566z"/>
				</g>
				<g>
					<path style="fill:#FFFFFF;" d="M299.812,181.281L299.812,181.281c11.293,0,19.922-9.155,19.273-20.449l0,0
						c-0.649-11.294-10.33-20.449-21.624-20.449l0,0c-11.293,0-19.922,9.155-19.273,20.449l0,0
						C278.838,172.126,288.519,181.281,299.812,181.281z"/>
				</g>
				<path style="fill:#263238;" d="M306.337,169.112h-13.572c0.079-1.34,0.478-2.601,1.199-3.782
					c0.721-1.181,2.12-2.575,4.197-4.182c1.269-0.985,2.073-1.733,2.414-2.243c0.341-0.511,0.498-0.996,0.472-1.455
					c-0.029-0.496-0.236-0.92-0.623-1.272s-0.858-0.528-1.413-0.528c-0.578,0-1.039,0.181-1.385,0.544
					c-0.346,0.363-0.555,1.003-0.628,1.921l-4.552-0.367c0.104-1.273,0.373-2.268,0.806-2.982c0.433-0.715,1.07-1.262,1.91-1.644
					c0.841-0.381,2.024-0.572,3.549-0.572c1.592,0,2.841,0.181,3.746,0.544c0.906,0.363,1.634,0.92,2.184,1.672
					c0.55,0.751,0.852,1.594,0.906,2.527c0.057,0.992-0.179,1.94-0.708,2.843c-0.529,0.903-1.529,1.895-3,2.977
					c-0.874,0.629-1.458,1.07-1.751,1.322c-0.293,0.252-0.635,0.581-1.026,0.988h7.063L306.337,169.112z"/>
			</g>
			<g>
				<g style="opacity:0.4;">
					<path style="fill:#407BFF;" d="M265.748,235.031h-24.733c-13.66,0-25.369-11.073-26.154-24.733l0,0
						c-0.785-13.659,9.652-24.733,23.311-24.733h0c13.66,0,25.369,11.073,26.154,24.733L265.748,235.031z"/>
				</g>
				<g>
					<path style="fill:#FFFFFF;" d="M240.769,230.747L240.769,230.747c-11.293,0-20.975-9.155-21.624-20.449l0,0
						c-0.649-11.294,7.98-20.449,19.273-20.449l0,0c11.293,0,20.975,9.155,21.624,20.449l0,0
						C260.691,221.592,252.063,230.747,240.769,230.747z"/>
				</g>
				<path style="fill:#263238;" d="M237.192,206.867l-4.32-0.766c0.277-1.362,0.9-2.406,1.869-3.132
					c0.969-0.726,2.379-1.088,4.23-1.088c2.125,0,3.684,0.396,4.677,1.188c0.993,0.792,1.524,1.788,1.593,2.987
					c0.04,0.703-0.115,1.34-0.468,1.91c-0.352,0.57-0.905,1.07-1.658,1.499c0.638,0.156,1.13,0.337,1.475,0.544
					c0.56,0.333,1.005,0.772,1.336,1.316c0.331,0.544,0.518,1.194,0.562,1.949c0.055,0.948-0.141,1.857-0.587,2.727
					c-0.446,0.87-1.122,1.54-2.028,2.01s-2.118,0.705-3.636,0.705c-1.481,0-2.659-0.174-3.534-0.522
					c-0.875-0.348-1.608-0.857-2.198-1.527c-0.59-0.67-1.063-1.512-1.417-2.527l4.486-0.6c0.23,0.911,0.542,1.542,0.936,1.894
					c0.394,0.352,0.88,0.527,1.457,0.527c0.607,0,1.1-0.222,1.478-0.666c0.378-0.444,0.546-1.036,0.503-1.777
					c-0.043-0.755-0.271-1.34-0.684-1.755c-0.412-0.415-0.952-0.622-1.618-0.622c-0.355,0-0.839,0.089-1.451,0.267l0.047-3.232
					c0.254,0.037,0.451,0.055,0.592,0.055c0.592,0,1.076-0.189,1.45-0.566c0.374-0.378,0.547-0.826,0.517-1.344
					c-0.029-0.496-0.199-0.892-0.513-1.188c-0.313-0.296-0.729-0.444-1.247-0.444c-0.533,0-0.957,0.161-1.272,0.483
					S237.264,206.06,237.192,206.867z"/>
			</g>
			<g>
				<g>
					<path style="fill:#E0E0E0;" d="M281.012,284.497h24.733c13.66,0,24.096-11.073,23.311-24.733v0
						c-0.785-13.659-12.495-24.733-26.154-24.733l0,0c-13.66,0-24.096,11.073-23.311,24.733L281.012,284.497z"/>
				</g>
				<g>
					<path style="fill:#FFFFFF;" d="M305.499,280.213L305.499,280.213c11.294,0,19.922-9.155,19.273-20.448v0
						c-0.649-11.293-10.33-20.448-21.624-20.448h0c-11.293,0-19.922,9.155-19.273,20.448v0
						C284.524,271.058,294.205,280.213,305.499,280.213z"/>
				</g>
				<g>
					<g>
						<path style="fill:#E0E0E0;" d="M305.411,265.001h-8.241l-0.214-3.72l7.678-9.796h3.943l0.575,10.007h2.044l0.202,3.509h-2.044
							l0.175,3.043h-3.943L305.411,265.001z M305.209,261.491l-0.294-5.124l-4.06,5.124H305.209z"/>
					</g>
				</g>
			</g>
			<path style="fill:#407BFF;" d="M271.957,235.907c-0.461,0-0.847-0.359-0.874-0.826l-5.686-98.932
				c-0.028-0.482,0.341-0.896,0.825-0.925c0.479-0.038,0.897,0.341,0.925,0.825l5.686,98.932c0.028,0.482-0.341,0.896-0.825,0.925
				C271.992,235.907,271.975,235.907,271.957,235.907z"/>
			<path style="fill:#E0E0E0;" d="M274.801,285.373c-0.461,0-0.847-0.359-0.874-0.826l-2.843-49.466
				c-0.028-0.482,0.341-0.896,0.825-0.925c0.474-0.031,0.897,0.341,0.925,0.825l2.843,49.466c0.028,0.482-0.341,0.897-0.825,0.925
				C274.835,285.373,274.818,285.373,274.801,285.373z"/>
			<g>
				<path style="fill:#FFFFFF;" d="M268.123,136.1c0.059,1.022-0.722,1.85-1.744,1.85c-1.022,0-1.898-0.828-1.957-1.85
					c-0.059-1.022,0.722-1.85,1.744-1.85C267.188,134.25,268.064,135.078,268.123,136.1z"/>
				<path style="fill:#407BFF;" d="M266.378,138.826c-1.476,0-2.746-1.2-2.831-2.676c-0.043-0.738,0.208-1.435,0.706-1.961
					c0.497-0.526,1.176-0.816,1.914-0.816c1.477,0,2.747,1.2,2.832,2.676l0,0c0.042,0.738-0.208,1.435-0.706,1.961
					C267.795,138.537,267.116,138.826,266.378,138.826z M266.166,135.126c-0.25,0-0.477,0.095-0.639,0.267
					c-0.163,0.172-0.245,0.405-0.23,0.657c0.032,0.555,0.527,1.024,1.081,1.024c0.25,0,0.477-0.095,0.639-0.267
					c0.163-0.172,0.245-0.406,0.23-0.658C267.216,135.595,266.721,135.126,266.166,135.126z"/>
			</g>
			<g>
				<path style="fill:#FFFFFF;" d="M270.966,185.566c0.059,1.022-0.722,1.85-1.744,1.85c-1.022,0-1.898-0.828-1.957-1.85
					c-0.059-1.022,0.722-1.85,1.744-1.85C270.031,183.715,270.907,184.544,270.966,185.566z"/>
				<path style="fill:#407BFF;" d="M269.222,188.292c-1.477,0-2.747-1.2-2.832-2.677c-0.042-0.737,0.208-1.435,0.706-1.961
					c0.497-0.526,1.176-0.815,1.913-0.815c1.476,0,2.746,1.2,2.831,2.676v0.001c0.042,0.738-0.208,1.435-0.705,1.961
					C270.639,188.003,269.959,188.292,269.222,188.292z M269.009,184.591c-0.25,0-0.477,0.095-0.639,0.267
					c-0.163,0.173-0.245,0.406-0.23,0.658c0.032,0.555,0.527,1.024,1.082,1.024c0.25,0,0.477-0.095,0.639-0.267
					c0.163-0.172,0.245-0.406,0.23-0.658C270.059,185.061,269.564,184.591,269.009,184.591z"/>
			</g>
			<g>
				<path style="fill:#FFFFFF;" d="M273.809,235.031c0.059,1.022-0.722,1.85-1.744,1.85c-1.022,0-1.898-0.828-1.957-1.85
					c-0.059-1.022,0.722-1.85,1.744-1.85C272.874,233.181,273.75,234.01,273.809,235.031z"/>
				<path style="fill:#E0E0E0;" d="M272.065,237.758c-1.477,0-2.747-1.2-2.832-2.677c-0.043-0.737,0.207-1.434,0.705-1.96
					c0.497-0.526,1.176-0.815,1.914-0.815c1.477,0,2.746,1.2,2.831,2.675l0,0c0.043,0.738-0.208,1.436-0.705,1.962
					C273.482,237.469,272.802,237.758,272.065,237.758z M271.852,234.058c-0.25,0-0.477,0.095-0.639,0.267
					c-0.163,0.172-0.244,0.405-0.229,0.656c0.032,0.556,0.527,1.025,1.082,1.025c0.25,0,0.477-0.095,0.639-0.267
					c0.163-0.172,0.244-0.406,0.229-0.657c0,0,0,0,0-0.001C272.902,234.526,272.407,234.058,271.852,234.058z"/>
			</g>
			<g>
				<path style="fill:#FFFFFF;" d="M276.652,284.497c0.059,1.022-0.722,1.85-1.744,1.85c-1.022,0-1.898-0.828-1.957-1.85
					c-0.059-1.022,0.722-1.85,1.744-1.85C275.717,282.647,276.593,283.475,276.652,284.497z"/>
				<path style="fill:#E0E0E0;" d="M274.908,287.224c-1.476,0-2.747-1.2-2.832-2.676c-0.043-0.738,0.208-1.436,0.706-1.962
					c0.497-0.526,1.176-0.815,1.913-0.815c1.477,0,2.747,1.2,2.832,2.677c0.042,0.737-0.208,1.435-0.706,1.961
					C276.324,286.935,275.645,287.224,274.908,287.224z M274.695,283.522c-0.25,0-0.477,0.095-0.639,0.267
					c-0.163,0.173-0.245,0.406-0.23,0.658c0.032,0.555,0.527,1.024,1.082,1.024c0.25,0,0.476-0.095,0.638-0.267
					c0.163-0.173,0.245-0.406,0.23-0.658C275.745,283.992,275.25,283.522,274.695,283.522z"/>
			</g>
		</g>
	</g>
</g>
<g id="Character_1_">
	<g>
		<g>
			<path style="fill:#FF8B7B;" d="M423.552,154.517c0.671,1.045,1.213,1.933,1.755,2.914c0.541,0.96,1.06,1.924,1.565,2.896
				c1.015,1.941,1.928,3.93,2.791,5.944c1.696,4.041,3.119,8.223,4.146,12.552l0.348,1.637l0.173,0.818l0.043,0.205l0.071,0.414
				c0.047,0.281,0.061,0.536,0.081,0.803c0.068,2.068-0.462,3.531-0.991,4.793c-1.101,2.499-2.492,4.346-3.932,6.11
				c-2.915,3.476-6.089,6.344-9.605,8.994l-3.196-3.358c2.454-3.201,4.925-6.551,6.919-9.851c0.977-1.638,1.862-3.347,2.275-4.756
				c0.207-0.684,0.22-1.295,0.157-1.325c-0.012,0.008-0.009,0-0.017,0.025c-0.002,0.01-0.003,0.02-0.001,0.029l-0.052-0.175
				l-0.207-0.704l-0.413-1.406c-1.185-3.738-2.655-7.428-4.327-11.042c-0.826-1.812-1.734-3.59-2.637-5.366
				c-0.457-0.885-0.927-1.763-1.411-2.626c-0.476-0.846-0.991-1.762-1.425-2.493L423.552,154.517z"/>
			<path style="fill:#FF8B7B;" d="M419.083,197.448l-7.52,0.31l3.027,6.457c0,0,5.351-0.304,7.358-3.549L419.083,197.448z"/>
			<polygon style="fill:#FF8B7B;" points="409.703,200.663 411.561,206.441 414.591,204.215 411.564,197.758 			"/>
			<path style="fill:#407BFF;" d="M405.07,407.457c0.846,0,1.772-0.175,2.422-0.328c0.085-0.02,0.15-0.088,0.166-0.173
				c0.016-0.085-0.02-0.171-0.091-0.219c-0.31-0.207-3.065-2.001-4.137-1.518c-0.169,0.076-0.383,0.244-0.44,0.609
				c-0.075,0.485,0.04,0.873,0.343,1.152C403.718,407.336,404.366,407.457,405.07,407.457z M406.882,406.819
				c-1.598,0.319-2.795,0.264-3.253-0.16c-0.195-0.18-0.264-0.432-0.211-0.771c0.028-0.183,0.113-0.243,0.184-0.275
				C404.168,405.356,405.759,406.134,406.882,406.819z"/>
			<path style="fill:#407BFF;" d="M407.441,407.135c0.038,0,0.076-0.01,0.109-0.029c0.067-0.039,0.109-0.11,0.11-0.187
				c0.001-0.112,0.026-2.747-0.957-3.628c-0.261-0.235-0.569-0.332-0.914-0.29c-0.544,0.066-0.696,0.407-0.738,0.604
				c-0.221,1.032,1.416,3.007,2.282,3.501C407.368,407.126,407.405,407.135,407.441,407.135z M405.935,403.425
				c0.178,0,0.335,0.062,0.477,0.19c0.586,0.526,0.77,2.005,0.808,2.882c-0.861-0.695-1.878-2.178-1.743-2.807
				c0.022-0.103,0.083-0.226,0.36-0.259C405.871,403.427,405.903,403.425,405.935,403.425z"/>
			<path style="fill:#407BFF;" d="M335.794,403.377c0.077,0.005,0.152-0.029,0.195-0.091c0.052-0.074,0.048-0.172-0.009-0.245
				c-0.282-0.359-2.742-3.45-4.073-3.536c-0.03-0.002-0.058-0.002-0.086-0.001c-0.252,0.01-0.457,0.129-0.591,0.346
				c-0.224,0.362-0.256,0.731-0.096,1.096c0.53,1.211,3.12,2.04,4.617,2.426C335.765,403.374,335.78,403.376,335.794,403.377z
				 M331.9,399.928c0.733,0.047,2.27,1.605,3.319,2.858c-2.023-0.588-3.379-1.319-3.676-1.998c-0.104-0.238-0.081-0.472,0.071-0.717
				c0.059-0.096,0.131-0.139,0.235-0.144C331.865,399.927,331.883,399.927,331.9,399.928z"/>
			<path style="fill:#407BFF;" d="M335.794,403.377c0.016,0.001,0.032,0,0.049-0.002c0.077-0.011,0.142-0.061,0.169-0.131
				c0.038-0.095,0.912-2.346,0.264-3.687c-0.198-0.41-0.517-0.697-0.948-0.851c-0.581-0.209-0.875-0.015-1.019,0.182
				c-0.607,0.835,0.532,3.505,1.327,4.411C335.676,403.346,335.734,403.373,335.794,403.377z M334.92,399.043
				c0.067,0.004,0.152,0.022,0.261,0.061c0.319,0.114,0.546,0.318,0.694,0.625c0.426,0.881,0.065,2.307-0.148,2.982
				c-0.736-1.075-1.417-3.073-1.052-3.574C334.696,399.106,334.75,399.032,334.92,399.043z"/>
			<path style="fill:#FF8B7B;" d="M401.686,123.337c-1.035,5.447-3.36,17.331,0.463,20.878c0,0-1.454,5.533-11.554,5.732
				c-11.106,0.218-5.339-5.4-5.339-5.4c6.053-1.564,5.871-6.05,4.791-10.246L401.686,123.337z"/>
			<path style="fill:#407BFF;" d="M403.657,139.139c-0.577-1.505-2.23-2.261-3.763-1.765c-3.493,1.132-7.715,1.772-10.69,1.932
				c-1.311,0.07-2.488,0.822-3.135,1.963l-4.291,7.564l24.462-2.961L403.657,139.139z"/>
			<path style="fill:#263238;" d="M379.317,114.309c0.064-0.014,0.126-0.043,0.18-0.087c0.188-0.151,0.22-0.425,0.072-0.611
				c-1.483-1.866-3.475-1.681-3.559-1.672c-0.238,0.023-0.413,0.239-0.392,0.477c0.022,0.238,0.231,0.411,0.468,0.387l0,0
				c0.066-0.006,1.62-0.134,2.803,1.355C378.994,114.29,379.161,114.342,379.317,114.309z"/>
			<path style="fill:#FF5652;" d="M377.041,119.667c0,0-0.991,3.289-2.24,4.948c1.043,0.816,2.658,0.245,2.658,0.245
				L377.041,119.667z"/>
			<path style="fill:#263238;" d="M377.596,118.34c0.059,0.737-0.282,1.37-0.762,1.416c-0.48,0.045-0.917-0.515-0.977-1.251
				c-0.059-0.736,0.282-1.37,0.762-1.416C377.1,117.043,377.537,117.603,377.596,118.34z"/>
			<path style="fill:#263238;" d="M376.835,117.109l-1.805-0.343C375.03,116.766,376.046,118.062,376.835,117.109z"/>
			<polygon style="fill:#FF8B7B;" points="344.527,409.154 335.662,406.097 341.916,386.37 350.782,389.427 			"/>
			<polygon style="fill:#FF8B7B;" points="417.676,407.196 408.523,407.196 407.694,386 416.847,386 			"/>
			<path style="fill:#263238;" d="M408.225,405.859h10.283c0.374,0,0.674,0.26,0.722,0.625l1.058,8.136
				c0.11,0.844-0.627,1.642-1.49,1.628c-3.584-0.062-5.309-0.272-9.831-0.272c-2.782,0-6.85,0.289-10.692,0.289
				c-3.758,0-3.994-3.799-2.389-4.143c7.194-1.543,8.357-3.67,10.802-5.7C407.128,406.055,407.678,405.859,408.225,405.859z"/>
			<path style="fill:#263238;" d="M336.818,402.496l9.514,4.473c0.346,0.163,0.514,0.523,0.404,0.866l-2.451,7.641
				c-0.254,0.792-1.273,1.177-2.065,0.788c-3.29-1.614-4.797-2.55-8.982-4.517c-2.574-1.21-8.024-3.46-11.579-5.131
				c-3.477-1.634-2.093-5.09-0.464-4.695c7.307,1.768,10.844,1.131,13.961,0.404C335.72,402.193,336.311,402.258,336.818,402.496z"
				/>
			<g>
				<polygon style="opacity:0.2;" points="341.916,386.376 338.564,396.944 347.56,399.602 350.785,389.434 				"/>
				<polygon style="opacity:0.2;" points="416.85,386.006 407.693,386.006 408.124,396.931 417.281,396.931 				"/>
			</g>
			<g>
				<path style="fill:#407BFF;" d="M420.051,145.372c3.81,0.758,7.953,14.345,7.953,14.345l-10.694,11.632
					c0,0-9.001-12.66-7.21-17.416C411.966,148.98,415.548,144.476,420.051,145.372z"/>
				<path style="opacity:0.4;fill:#FFFFFF;" d="M420.051,145.372c3.81,0.758,7.953,14.345,7.953,14.345l-10.694,11.632
					c0,0-9.001-12.66-7.21-17.416C411.966,148.98,415.548,144.476,420.051,145.372z"/>
			</g>
			<path style="opacity:0.4;fill:#407BFF;" d="M414.07,154.188c-1.935-1.72-3.233-1.17-4.111,0.244
				c-0.852,4.079,4.381,12.481,6.488,15.661C417.387,166.231,418.445,158.098,414.07,154.188z"/>
			<g>
				<path style="fill:#407BFF;" d="M371.154,148.525c-0.688,4.005-0.837,16.196,5.417,53.162l37.203-0.73
					c-0.711-15.103-0.782-24.424,6.277-55.586c0,0-7.805-1.54-15.81-1.768c-6.262-0.178-11.393-0.277-16.893,0.332
					c-5.405,0.599-11.346,1.775-14.022,2.335C372.203,146.505,371.348,147.396,371.154,148.525z"/>
				<path style="opacity:0.4;fill:#FFFFFF;" d="M371.154,148.525c-0.688,4.005-0.837,16.196,5.417,53.162l37.203-0.73
					c-0.711-15.103-0.782-24.424,6.277-55.586c0,0-7.805-1.54-15.81-1.768c-6.262-0.178-11.393-0.277-16.893,0.332
					c-5.405,0.599-11.346,1.775-14.022,2.335C372.203,146.505,371.348,147.396,371.154,148.525z"/>
			</g>
			<path style="fill:#FF8B7B;" d="M402.087,113.476c0.175,9.097,0.442,12.942-3.739,18.015c-6.29,7.632-17.462,6.008-20.342-2.818
				c-2.592-7.943-2.442-21.486,6.097-25.921C392.516,98.383,401.912,104.378,402.087,113.476z"/>
			<path style="fill:#263238;" d="M376.835,111.111c7.221-1.444,16.713-3.889,18.606-9.167
				C397.333,96.667,375.932,92.542,376.835,111.111z"/>
			<path style="fill:#407BFF;" d="M382.389,113.5c-1.021-0.51-2.889-3.685-1.722-9.204c1.167-5.519,9.889-10.463,16.722-6.574
				C390.167,100.5,382.389,113.5,382.389,113.5z"/>
			<path style="fill:#263238;" d="M381.778,107.778c-1.222,5.111,0.043,8.764,1.992,10.644c0,0-5.043,32.942,20.035,29.356
				c25.078-3.586,10.433-41.039,4.587-46.484C402.547,95.85,386.834,93.094,381.778,107.778z"/>
			<path style="fill:#FF8B7B;" d="M381.932,115.733c-1.244,1.955-1.472,4.073-1.365,5.489c0.184,2.439,2.089,2.441,3.493,0.983
				c1.263-1.312,2.629-4.467,1.923-6.329C385.286,114.042,383.044,113.985,381.932,115.733z"/>
			<path style="fill:#407BFF;" d="M386.396,201.495c0,0,5.676,62.66,11.395,97.924c4.619,28.483,8.526,95.119,8.526,95.119h12.482
				c0,0,4.07-65.041,1.647-93.255c-6.132-71.393,4.915-78.06-6.671-100.325L386.396,201.495z"/>
			<path style="opacity:0.4;" d="M399.093,222.443c-3.254,4.78-7.596,10.286-8.995,16.112c1.121,10.569,2.435,22.259,3.856,33.499
				C397.378,262.596,403.262,243.707,399.093,222.443z"/>
			<path style="fill:#407BFF;" d="M376.571,201.688c0,0-14.909,67.422-20.015,94.896c-5.312,28.577-17.642,93.334-17.642,93.334
				l12.445,6.402c0,0,23.01-77.968,26.085-92.378c8.114-30.063,34.119-102.9,34.119-102.9L376.571,201.688z"/>
			<polygon style="fill:#263238;" points="336.331,392.59 351.465,398.616 354.401,393.347 338.209,386.881 			"/>
			<polygon style="fill:#263238;" points="404.605,394.785 420.503,394.785 421.416,389.208 404.6,388.639 			"/>
			<path style="fill:#263238;" d="M414.319,198.768l1.697,3.292c0.132,0.255-0.173,0.524-0.603,0.533l-39.016,0.765
				c-0.336,0.007-0.614-0.152-0.637-0.362l-0.355-3.318c-0.025-0.23,0.265-0.43,0.632-0.438l37.674-0.739
				C413.988,198.495,414.234,198.603,414.319,198.768z"/>
			<path style="fill:#407BFF;" d="M409.283,203.072l1.009-0.02c0.201-0.004,0.353-0.11,0.339-0.236l-0.498-4.31
				c-0.015-0.126-0.191-0.226-0.392-0.222l-1.009,0.02c-0.201,0.004-0.353,0.11-0.339,0.236l0.498,4.31
				C408.906,202.976,409.082,203.076,409.283,203.072z"/>
			<path style="fill:#407BFF;" d="M384.826,203.552l1.009-0.02c0.201-0.004,0.353-0.11,0.339-0.237l-0.498-4.31
				c-0.015-0.126-0.191-0.226-0.392-0.222l-1.009,0.02c-0.201,0.004-0.353,0.11-0.339,0.237l0.498,4.31
				C384.449,203.456,384.625,203.556,384.826,203.552z"/>
			<path style="fill:#FF8B7B;" d="M377.36,157.157c-2.087,4.4-4.367,8.467-6.944,12.518c-1.282,2.017-2.602,4.02-4.073,5.955
				c-0.707,0.979-1.49,1.932-2.245,2.892c-0.813,0.939-1.596,1.884-2.483,2.796c-0.789,0.881-1.923,1.961-2.961,2.77
				c-1.068,0.835-2.158,1.567-3.258,2.222c-2.193,1.329-4.448,2.355-6.703,3.279c-4.549,1.795-9.099,3.045-13.882,3.855
				l-1.203-4.477c4.089-1.721,8.229-3.668,12.029-5.804c1.908-1.063,3.726-2.227,5.38-3.448c0.829-0.611,1.593-1.259,2.284-1.917
				c0.724-0.68,1.225-1.237,1.921-2.123c2.644-3.259,5.016-7.033,7.298-10.836c1.145-1.907,2.203-3.882,3.287-5.84
				c1.078-1.942,2.13-3.989,3.112-5.887L377.36,157.157z"/>
			<g>
				<path style="fill:#407BFF;" d="M373.874,146.132c-8.789,1.901-11.754,14.76-11.754,14.76l11.224,9.666
					c0,0,11.418-11.736,11.021-18.789C384.07,146.531,378.665,145.096,373.874,146.132z"/>
				<path style="opacity:0.4;fill:#FFFFFF;" d="M373.874,146.132c-8.789,1.901-11.754,14.76-11.754,14.76l11.224,9.666
					c0,0,11.418-11.736,11.021-18.789C384.07,146.531,378.665,145.096,373.874,146.132z"/>
			</g>
			<path style="fill:#FF8B7B;" d="M338.168,192.742l-8.892,4.512l-3.296-7.602c0,0,7.865-1.818,11.246-0.126L338.168,192.742z"/>
			<polygon style="fill:#FF8B7B;" points="325.894,198.809 322.444,193.659 325.98,189.651 329.276,197.253 			"/>
		</g>
	</g>
</g>
</svg>
